<svg width="36" height="200" viewBox="0 0 36 200" fill="none" xmlns="http://www.w3.org/2000/svg">
<rect width="300" height="200" rx="6" fill="white"/>
<path d="M19.15 145.1C19.01 145.1 18.94 145.03 18.94 144.89V144.61C18.94 144.507 18.9587 144.433 18.996 144.386C19.0427 144.33 19.094 144.265 19.15 144.19L22.37 141.18V141.11H17.47C17.33 141.11 17.26 141.04 17.26 140.9V140.41C17.26 140.27 17.33 140.2 17.47 140.2H23.63C23.77 140.2 23.84 140.27 23.84 140.41V140.69C23.84 140.793 23.8167 140.872 23.77 140.928C23.7327 140.975 23.686 141.035 23.63 141.11L20.41 144.12V144.19H21.53C22.3047 144.19 22.9067 144.405 23.336 144.834C23.7653 145.263 23.98 145.865 23.98 146.64V147.69C23.98 148.465 23.7653 149.067 23.336 149.496C22.9067 149.925 22.3047 150.14 21.53 150.14H19.43C18.6553 150.14 18.0533 149.925 17.624 149.496C17.1947 149.067 16.98 148.465 16.98 147.69V147.27C16.98 147.13 17.05 147.06 17.19 147.06H17.68C17.82 147.06 17.89 147.13 17.89 147.27V147.69C17.89 148.185 18.0207 148.567 18.282 148.838C18.5527 149.099 18.9353 149.23 19.43 149.23H21.53C22.0247 149.23 22.4027 149.099 22.664 148.838C22.9347 148.567 23.07 148.185 23.07 147.69V146.64C23.07 146.145 22.9347 145.767 22.664 145.506C22.4027 145.235 22.0247 145.1 21.53 145.1H19.15ZM33.2155 142.51C33.2155 142.015 33.0801 141.637 32.8095 141.376C32.5481 141.105 32.1701 140.97 31.6755 140.97H29.0855C28.5908 140.97 28.2081 141.105 27.9375 141.376C27.6761 141.637 27.5455 142.015 27.5455 142.51V147.69C27.5455 148.185 27.6761 148.567 27.9375 148.838C28.2081 149.099 28.5908 149.23 29.0855 149.23H31.6755C32.1701 149.23 32.5481 149.099 32.8095 148.838C33.0801 148.567 33.2155 148.185 33.2155 147.69V142.51ZM34.1255 147.69C34.1255 148.465 33.9108 149.067 33.4815 149.496C33.0521 149.925 32.4501 150.14 31.6755 150.14H29.0855C28.3108 150.14 27.7088 149.925 27.2795 149.496C26.8501 149.067 26.6355 148.465 26.6355 147.69V142.51C26.6355 141.735 26.8501 141.133 27.2795 140.704C27.7088 140.275 28.3108 140.06 29.0855 140.06H31.6755C32.4501 140.06 33.0521 140.275 33.4815 140.704C33.9108 141.133 34.1255 141.735 34.1255 142.51V147.69ZM36.28 146.15C36.14 146.15 36.07 146.08 36.07 145.94V145.45C36.07 145.31 36.14 145.24 36.28 145.24H40.97C41.11 145.24 41.18 145.31 41.18 145.45V145.94C41.18 146.08 41.11 146.15 40.97 146.15H36.28ZM44.3873 141.11H42.2873C42.1473 141.11 42.0773 141.04 42.0773 140.9V140.41C42.0773 140.27 42.1473 140.2 42.2873 140.2H45.0873C45.2273 140.2 45.2973 140.27 45.2973 140.41V149.79C45.2973 149.93 45.2273 150 45.0873 150H44.5973C44.4573 150 44.3873 149.93 44.3873 149.79V141.11ZM49.4238 149.02V149.09H54.6738C54.8138 149.09 54.8838 149.16 54.8838 149.3V149.79C54.8838 149.93 54.8138 150 54.6738 150H48.2338C48.0938 150 48.0238 149.93 48.0238 149.79V149.37C48.0238 149.267 48.0425 149.193 48.0798 149.146C48.1265 149.09 48.1778 149.025 48.2338 148.95L53.0638 144.54C53.3438 144.288 53.5632 144.059 53.7218 143.854C53.8898 143.649 53.9738 143.387 53.9738 143.07V142.51C53.9738 142.015 53.8385 141.637 53.5678 141.376C53.3065 141.105 52.9285 140.97 52.4338 140.97H50.4738C49.9792 140.97 49.5965 141.105 49.3258 141.376C49.0645 141.637 48.9338 142.015 48.9338 142.51V142.93C48.9338 143.07 48.8638 143.14 48.7238 143.14H48.2338C48.0938 143.14 48.0238 143.07 48.0238 142.93V142.51C48.0238 141.735 48.2385 141.133 48.6678 140.704C49.0972 140.275 49.6992 140.06 50.4738 140.06H52.4338C53.2085 140.06 53.8105 140.275 54.2398 140.704C54.6692 141.133 54.8838 141.735 54.8838 142.51V143.07C54.8838 143.313 54.8512 143.532 54.7858 143.728C54.7205 143.924 54.6365 144.106 54.5338 144.274C54.4312 144.433 54.3098 144.582 54.1698 144.722C54.0392 144.853 53.9038 144.979 53.7638 145.1L49.4238 149.02ZM64.1893 142.51C64.1893 142.015 64.054 141.637 63.7833 141.376C63.522 141.105 63.144 140.97 62.6493 140.97H60.0593C59.5646 140.97 59.182 141.105 58.9113 141.376C58.65 141.637 58.5193 142.015 58.5193 142.51V147.69C58.5193 148.185 58.65 148.567 58.9113 148.838C59.182 149.099 59.5646 149.23 60.0593 149.23H62.6493C63.144 149.23 63.522 149.099 63.7833 148.838C64.054 148.567 64.1893 148.185 64.1893 147.69V142.51ZM65.0993 147.69C65.0993 148.465 64.8846 149.067 64.4553 149.496C64.026 149.925 63.424 150.14 62.6493 150.14H60.0593C59.2846 150.14 58.6826 149.925 58.2533 149.496C57.824 149.067 57.6093 148.465 57.6093 147.69V142.51C57.6093 141.735 57.824 141.133 58.2533 140.704C58.6826 140.275 59.2846 140.06 60.0593 140.06H62.6493C63.424 140.06 64.026 140.275 64.4553 140.704C64.8846 141.133 65.0993 141.735 65.0993 142.51V147.69ZM74.5982 150C74.4955 150 74.4209 149.986 74.3742 149.958C74.3275 149.921 74.2855 149.865 74.2482 149.79L71.6582 144.4H71.5882V149.79C71.5882 149.93 71.5182 150 71.3782 150H70.9582C70.8182 150 70.7482 149.93 70.7482 149.79V143.07C70.7482 142.93 70.8182 142.86 70.9582 142.86H71.5182C71.6209 142.86 71.6955 142.879 71.7422 142.916C71.7889 142.944 71.8309 142.995 71.8682 143.07L74.6682 148.88H74.7382L77.5382 143.07C77.5755 142.995 77.6175 142.944 77.6642 142.916C77.7109 142.879 77.7855 142.86 77.8882 142.86H78.4482C78.5882 142.86 78.6582 142.93 78.6582 143.07V149.79C78.6582 149.93 78.5882 150 78.4482 150H78.0282C77.8882 150 77.8182 149.93 77.8182 149.79V144.4H77.7482L75.1582 149.79C75.1209 149.865 75.0789 149.921 75.0322 149.958C74.9855 149.986 74.9109 150 74.8082 150H74.5982ZM86.1431 144.12L82.3631 149.79C82.3165 149.865 82.2698 149.921 82.2231 149.958C82.1765 149.986 82.0831 150 81.9431 150H81.4531C81.3131 150 81.2431 149.93 81.2431 149.79V143.07C81.2431 142.93 81.3131 142.86 81.4531 142.86H81.8731C82.0131 142.86 82.0831 142.93 82.0831 143.07V148.74H82.1531L85.9331 143.07C85.9798 142.995 86.0265 142.944 86.0731 142.916C86.1198 142.879 86.2131 142.86 86.3531 142.86H86.8431C86.9831 142.86 87.0531 142.93 87.0531 143.07V149.79C87.0531 149.93 86.9831 150 86.8431 150H86.4231C86.2831 150 86.2131 149.93 86.2131 149.79V144.12H86.1431ZM95.0926 142.86C95.2326 142.86 95.3026 142.93 95.3026 143.07V149.79C95.3026 149.93 95.2326 150 95.0926 150H94.6726C94.5326 150 94.4626 149.93 94.4626 149.79V146.78H90.4726V149.79C90.4726 149.93 90.4026 150 90.2626 150H89.8426C89.7026 150 89.6326 149.93 89.6326 149.79V143.07C89.6326 142.93 89.7026 142.86 89.8426 142.86H90.2626C90.4026 142.86 90.4726 142.93 90.4726 143.07V145.94H94.4626V143.07C94.4626 142.93 94.5326 142.86 94.6726 142.86H95.0926Z" fill="#1B1C21"/>
<path opacity="0.721842" d="M17.26 121.51C17.26 119.877 18.1 119.06 19.78 119.06H23C24.68 119.06 25.52 119.877 25.52 121.51V122.07C25.52 122.21 25.45 122.28 25.31 122.28H24.4C24.26 122.28 24.19 122.21 24.19 122.07V121.51C24.19 120.717 23.7933 120.32 23 120.32H19.78C18.9867 120.32 18.59 120.717 18.59 121.51V126.69C18.59 127.483 18.9867 127.88 19.78 127.88H23C23.7933 127.88 24.19 127.483 24.19 126.69V126.13C24.19 125.99 24.26 125.92 24.4 125.92H25.31C25.45 125.92 25.52 125.99 25.52 126.13V126.69C25.52 128.323 24.68 129.14 23 129.14H19.78C18.1 129.14 17.26 128.323 17.26 126.69V121.51ZM31.47 127.88C31.7873 127.88 32.0393 127.787 32.226 127.6C32.422 127.404 32.52 127.147 32.52 126.83V123.89C32.52 123.573 32.422 123.321 32.226 123.134C32.0393 122.938 31.7873 122.84 31.47 122.84H30.28C29.86 122.84 29.51 122.98 29.23 123.26C28.95 123.54 28.81 123.89 28.81 124.31V127.88H31.47ZM28.81 129V131.45C28.81 131.59 28.74 131.66 28.6 131.66H27.83C27.69 131.66 27.62 131.59 27.62 131.45V122.07C27.62 121.93 27.69 121.86 27.83 121.86H28.6C28.74 121.86 28.81 121.93 28.81 122.07V122.56H28.88C28.9547 122.401 29.062 122.261 29.202 122.14C29.3233 122.037 29.482 121.944 29.678 121.86C29.874 121.767 30.1213 121.72 30.42 121.72H31.47C32.2073 121.72 32.7627 121.907 33.136 122.28C33.5187 122.653 33.71 123.19 33.71 123.89V126.83C33.71 127.53 33.5187 128.067 33.136 128.44C32.7627 128.813 32.2073 129 31.47 129H28.81ZM40.7095 123.89C40.7095 123.573 40.6115 123.321 40.4155 123.134C40.2288 122.938 39.9768 122.84 39.6595 122.84H37.9095C37.5921 122.84 37.3355 122.938 37.1395 123.134C36.9528 123.321 36.8595 123.573 36.8595 123.89V126.97C36.8595 127.287 36.9528 127.544 37.1395 127.74C37.3355 127.927 37.5921 128.02 37.9095 128.02H39.6595C39.9768 128.02 40.2288 127.927 40.4155 127.74C40.6115 127.544 40.7095 127.287 40.7095 126.97V123.89ZM41.8995 126.97C41.8995 127.67 41.7081 128.207 41.3255 128.58C40.9521 128.953 40.3968 129.14 39.6595 129.14H37.9095C37.1721 129.14 36.6121 128.953 36.2295 128.58C35.8561 128.207 35.6695 127.67 35.6695 126.97V123.89C35.6695 123.19 35.8561 122.653 36.2295 122.28C36.6121 121.907 37.1721 121.72 37.9095 121.72H39.6595C40.3968 121.72 40.9521 121.907 41.3255 122.28C41.7081 122.653 41.8995 123.19 41.8995 123.89V126.97ZM46.9389 125.78H45.1889V128.79C45.1889 128.93 45.1189 129 44.9789 129H44.2089C44.0689 129 43.9989 128.93 43.9989 128.79V122.07C43.9989 121.93 44.0689 121.86 44.2089 121.86H44.9789C45.1189 121.86 45.1889 121.93 45.1889 122.07V124.66H46.9389L48.3389 122.07C48.3762 121.995 48.4182 121.944 48.4649 121.916C48.5116 121.879 48.5862 121.86 48.6889 121.86H49.5289C49.6876 121.86 49.7342 121.93 49.6689 122.07L47.9189 125.22L49.8789 128.79C49.9442 128.93 49.8976 129 49.7389 129H48.8989C48.7962 129 48.7216 128.986 48.6749 128.958C48.6282 128.921 48.5862 128.865 48.5489 128.79L46.9389 125.78Z" fill="#7E7E82"/>
<path opacity="0.721842" d="M22.72 24.66C23.5133 24.66 23.91 24.2633 23.91 23.47V21.65C23.91 20.8567 23.5133 20.46 22.72 20.46H18.73V24.66H22.72ZM18.73 25.92V28.79C18.73 28.93 18.66 29 18.52 29H17.61C17.47 29 17.4 28.93 17.4 28.79V19.41C17.4 19.27 17.47 19.2 17.61 19.2H22.72C24.4 19.2 25.24 20.0167 25.24 21.65V23.47C25.24 25.1033 24.4 25.92 22.72 25.92H18.73ZM32.1766 24.8V23.89C32.1766 23.5727 32.0786 23.3207 31.8826 23.134C31.6959 22.938 31.4439 22.84 31.1266 22.84H29.4466C29.1292 22.84 28.8726 22.938 28.6766 23.134C28.4899 23.3207 28.3966 23.5727 28.3966 23.89V24.8H32.1766ZM28.3966 25.92V26.97C28.3966 27.2873 28.4899 27.544 28.6766 27.74C28.8726 27.9267 29.1292 28.02 29.4466 28.02H31.1266C31.4439 28.02 31.6959 27.9267 31.8826 27.74C32.0786 27.544 32.1766 27.2873 32.1766 26.97V26.9C32.1766 26.76 32.2466 26.69 32.3866 26.69H33.1566C33.2966 26.69 33.3666 26.76 33.3666 26.9V26.97C33.3666 27.67 33.1752 28.2067 32.7926 28.58C32.4192 28.9533 31.8639 29.14 31.1266 29.14H29.4466C28.7092 29.14 28.1492 28.9533 27.7666 28.58C27.3932 28.2067 27.2066 27.67 27.2066 26.97V23.89C27.2066 23.19 27.3932 22.6533 27.7666 22.28C28.1492 21.9067 28.7092 21.72 29.4466 21.72H31.1266C31.8639 21.72 32.4192 21.9067 32.7926 22.28C33.1752 22.6533 33.3666 23.19 33.3666 23.89V25.71C33.3666 25.85 33.2966 25.92 33.1566 25.92H28.3966ZM39.5277 27.46L42.0477 22.07C42.085 21.9953 42.127 21.944 42.1737 21.916C42.2297 21.8787 42.3277 21.86 42.4677 21.86H43.3077C43.4477 21.86 43.5177 21.93 43.5177 22.07V28.79C43.5177 28.93 43.4477 29 43.3077 29H42.5377C42.3977 29 42.3277 28.93 42.3277 28.79V24.17H42.2577L40.0877 28.79C40.0503 28.8647 40.0037 28.9207 39.9477 28.958C39.901 28.986 39.8077 29 39.6677 29H39.3177C39.1777 29 39.0797 28.986 39.0237 28.958C38.977 28.9207 38.935 28.8647 38.8977 28.79L36.7277 24.17H36.6577V28.79C36.6577 28.93 36.5877 29 36.4477 29H35.6777C35.5377 29 35.4677 28.93 35.4677 28.79V22.07C35.4677 21.93 35.5377 21.86 35.6777 21.86H36.5177C36.6577 21.86 36.751 21.8787 36.7977 21.916C36.8537 21.944 36.9003 21.9953 36.9377 22.07L39.4577 27.46H39.5277ZM50.6626 23.89C50.6626 23.5727 50.5646 23.3207 50.3686 23.134C50.1819 22.938 49.9299 22.84 49.6126 22.84H47.8626C47.5452 22.84 47.2886 22.938 47.0926 23.134C46.9059 23.3207 46.8126 23.5727 46.8126 23.89V26.97C46.8126 27.2873 46.9059 27.544 47.0926 27.74C47.2886 27.9267 47.5452 28.02 47.8626 28.02H49.6126C49.9299 28.02 50.1819 27.9267 50.3686 27.74C50.5646 27.544 50.6626 27.2873 50.6626 26.97V23.89ZM51.8526 26.97C51.8526 27.67 51.6612 28.2067 51.2786 28.58C50.9052 28.9533 50.3499 29.14 49.6126 29.14H47.8626C47.1252 29.14 46.5652 28.9533 46.1826 28.58C45.8092 28.2067 45.6226 27.67 45.6226 26.97V23.89C45.6226 23.19 45.8092 22.6533 46.1826 22.28C46.5652 21.9067 47.1252 21.72 47.8626 21.72H49.6126C50.3499 21.72 50.9052 21.9067 51.2786 22.28C51.6612 22.6533 51.8526 23.19 51.8526 23.89V26.97ZM55.142 25.92V28.79C55.142 28.93 55.072 29 54.932 29H54.162C54.022 29 53.952 28.93 53.952 28.79V22.07C53.952 21.93 54.022 21.86 54.162 21.86H54.932C55.072 21.86 55.142 21.93 55.142 22.07V24.87H58.712V22.07C58.712 21.93 58.782 21.86 58.922 21.86H59.692C59.832 21.86 59.902 21.93 59.902 22.07V28.79C59.902 28.93 59.832 29 59.692 29H58.922C58.782 29 58.712 28.93 58.712 28.79V25.92H55.142ZM63.7515 29C63.6115 29 63.5415 28.93 63.5415 28.79V22.98H61.3715C61.2315 22.98 61.1615 22.91 61.1615 22.77V22.07C61.1615 21.93 61.2315 21.86 61.3715 21.86H66.9015C67.0415 21.86 67.1115 21.93 67.1115 22.07V22.77C67.1115 22.91 67.0415 22.98 66.9015 22.98H64.7315V28.79C64.7315 28.93 64.6615 29 64.5215 29H63.7515ZM69.5659 25.92V28.79C69.5659 28.93 69.4959 29 69.3559 29H68.5859C68.4459 29 68.3759 28.93 68.3759 28.79V22.07C68.3759 21.93 68.4459 21.86 68.5859 21.86H69.3559C69.4959 21.86 69.5659 21.93 69.5659 22.07V24.87H73.1359V22.07C73.1359 21.93 73.2059 21.86 73.3459 21.86H74.1159C74.2559 21.86 74.3259 21.93 74.3259 22.07V28.79C74.3259 28.93 74.2559 29 74.1159 29H73.3459C73.2059 29 73.1359 28.93 73.1359 28.79V25.92H69.5659ZM79.9253 27.88C80.2053 27.88 80.4246 27.8007 80.5833 27.642C80.7513 27.474 80.8353 27.25 80.8353 26.97V26.27C80.8353 25.99 80.7513 25.7707 80.5833 25.612C80.4246 25.444 80.2053 25.36 79.9253 25.36H77.7553V27.88H79.9253ZM76.7753 29C76.6353 29 76.5653 28.93 76.5653 28.79V22.07C76.5653 21.93 76.6353 21.86 76.7753 21.86H77.5453C77.6853 21.86 77.7553 21.93 77.7553 22.07V24.24H79.9253C81.3253 24.24 82.0253 24.9167 82.0253 26.27V26.97C82.0253 28.3233 81.3253 29 79.9253 29H76.7753ZM84.4053 28.79C84.4053 28.93 84.3353 29 84.1953 29H83.4253C83.2853 29 83.2153 28.93 83.2153 28.79V22.07C83.2153 21.93 83.2853 21.86 83.4253 21.86H84.1953C84.3353 21.86 84.4053 21.93 84.4053 22.07V28.79ZM91.4715 24.8V23.89C91.4715 23.5727 91.3735 23.3207 91.1775 23.134C90.9908 22.938 90.7388 22.84 90.4215 22.84H88.7415C88.4242 22.84 88.1675 22.938 87.9715 23.134C87.7848 23.3207 87.6915 23.5727 87.6915 23.89V24.8H91.4715ZM87.6915 25.92V26.97C87.6915 27.2873 87.7848 27.544 87.9715 27.74C88.1675 27.9267 88.4242 28.02 88.7415 28.02H90.4215C90.7388 28.02 90.9908 27.9267 91.1775 27.74C91.3735 27.544 91.4715 27.2873 91.4715 26.97V26.9C91.4715 26.76 91.5415 26.69 91.6815 26.69H92.4515C92.5915 26.69 92.6615 26.76 92.6615 26.9V26.97C92.6615 27.67 92.4702 28.2067 92.0875 28.58C91.7142 28.9533 91.1588 29.14 90.4215 29.14H88.7415C88.0042 29.14 87.4442 28.9533 87.0615 28.58C86.6882 28.2067 86.5015 27.67 86.5015 26.97V23.89C86.5015 23.19 86.6882 22.6533 87.0615 22.28C87.4442 21.9067 88.0042 21.72 88.7415 21.72H90.4215C91.1588 21.72 91.7142 21.9067 92.0875 22.28C92.4702 22.6533 92.6615 23.19 92.6615 23.89V25.71C92.6615 25.85 92.5915 25.92 92.4515 25.92H87.6915ZM102.003 22.07C102.031 21.9953 102.069 21.944 102.115 21.916C102.171 21.8787 102.251 21.86 102.353 21.86H103.193C103.343 21.86 103.389 21.93 103.333 22.07L100.603 29C100.407 29.4947 100.216 29.91 100.029 30.246C99.8426 30.582 99.642 30.8527 99.4273 31.058C99.2126 31.2727 98.9793 31.4267 98.7273 31.52C98.4753 31.6133 98.1906 31.66 97.8733 31.66H97.5933C97.4533 31.66 97.3833 31.59 97.3833 31.45V30.75C97.3833 30.61 97.4533 30.54 97.5933 30.54H97.8733C98.228 30.54 98.5173 30.4233 98.7413 30.19C98.9746 29.9567 99.1986 29.56 99.4133 29L96.6833 22.07C96.6273 21.93 96.674 21.86 96.8233 21.86H97.6633C97.766 21.86 97.8406 21.8787 97.8873 21.916C97.9433 21.944 97.9853 21.9953 98.0133 22.07L99.9733 27.32H100.043L102.003 22.07ZM105.738 26.97C105.738 27.2873 105.832 27.544 106.018 27.74C106.214 27.9267 106.471 28.02 106.788 28.02H108.398C108.716 28.02 108.968 27.9267 109.154 27.74C109.35 27.544 109.448 27.2873 109.448 26.97V26.62C109.448 26.48 109.518 26.41 109.658 26.41H110.428C110.568 26.41 110.638 26.48 110.638 26.62V26.97C110.638 27.67 110.447 28.2067 110.064 28.58C109.691 28.9533 109.136 29.14 108.398 29.14H106.788C106.051 29.14 105.491 28.9533 105.108 28.58C104.735 28.2067 104.548 27.67 104.548 26.97V23.89C104.548 23.19 104.735 22.6533 105.108 22.28C105.491 21.9067 106.051 21.72 106.788 21.72H108.398C109.136 21.72 109.691 21.9067 110.064 22.28C110.447 22.6533 110.638 23.19 110.638 23.89V24.24C110.638 24.38 110.568 24.45 110.428 24.45H109.658C109.518 24.45 109.448 24.38 109.448 24.24V23.89C109.448 23.5727 109.35 23.3207 109.154 23.134C108.968 22.938 108.716 22.84 108.398 22.84H106.788C106.471 22.84 106.214 22.938 106.018 23.134C105.832 23.3207 105.738 23.5727 105.738 23.89V26.97ZM114.074 27.11C113.934 27.81 113.696 28.3233 113.36 28.65C113.024 28.9767 112.539 29.14 111.904 29.14H111.694C111.554 29.14 111.484 29.07 111.484 28.93V28.23C111.484 28.09 111.554 28.02 111.694 28.02H111.904C112.147 28.02 112.352 27.9407 112.52 27.782C112.698 27.6233 112.819 27.3993 112.884 27.11L113.934 22.07C113.962 21.93 114.079 21.86 114.284 21.86H118.204C118.344 21.86 118.414 21.93 118.414 22.07V28.79C118.414 28.93 118.344 29 118.204 29H117.434C117.294 29 117.224 28.93 117.224 28.79V22.98H114.914L114.074 27.11ZM125.095 22.07C125.123 21.9953 125.16 21.944 125.207 21.916C125.263 21.8787 125.342 21.86 125.445 21.86H126.285C126.434 21.86 126.481 21.93 126.425 22.07L123.695 29C123.499 29.4947 123.308 29.91 123.121 30.246C122.934 30.582 122.734 30.8527 122.519 31.058C122.304 31.2727 122.071 31.4267 121.819 31.52C121.567 31.6133 121.282 31.66 120.965 31.66H120.685C120.545 31.66 120.475 31.59 120.475 31.45V30.75C120.475 30.61 120.545 30.54 120.685 30.54H120.965C121.32 30.54 121.609 30.4233 121.833 30.19C122.066 29.9567 122.29 29.56 122.505 29L119.775 22.07C119.719 21.93 119.766 21.86 119.915 21.86H120.755C120.858 21.86 120.932 21.8787 120.979 21.916C121.035 21.944 121.077 21.9953 121.105 22.07L123.065 27.32H123.135L125.095 22.07ZM127.99 29C127.85 29 127.78 28.93 127.78 28.79V22.07C127.78 21.93 127.85 21.86 127.99 21.86H132.61C132.75 21.86 132.82 21.93 132.82 22.07V22.77C132.82 22.91 132.75 22.98 132.61 22.98H128.97V28.79C128.97 28.93 128.9 29 128.76 29H127.99ZM139.826 21.86C139.966 21.86 140.036 21.93 140.036 22.07V28.79C140.036 28.93 139.966 29 139.826 29H139.056C138.916 29 138.846 28.93 138.846 28.79V23.68H138.776L135.416 28.79C135.37 28.8647 135.323 28.9207 135.276 28.958C135.23 28.986 135.136 29 134.996 29H134.156C134.016 29 133.946 28.93 133.946 28.79V22.07C133.946 21.93 134.016 21.86 134.156 21.86H134.926C135.066 21.86 135.136 21.93 135.136 22.07V27.18H135.206L138.566 22.07C138.613 21.9953 138.66 21.944 138.706 21.916C138.753 21.8787 138.846 21.86 138.986 21.86H139.826Z" fill="#7E7E82"/>
<path d="M17.05 49.09L18.94 40.41C18.9587 40.3353 18.982 40.284 19.01 40.256C19.0473 40.2187 19.1173 40.2 19.22 40.2H24.19C24.33 40.2 24.4 40.27 24.4 40.41V49.09H25.31C25.45 49.09 25.52 49.16 25.52 49.3V51.68C25.52 51.82 25.45 51.89 25.31 51.89H24.82C24.68 51.89 24.61 51.82 24.61 51.68V50H16.91V51.68C16.91 51.82 16.84 51.89 16.7 51.89H16.21C16.07 51.89 16 51.82 16 51.68V49.3C16 49.16 16.07 49.09 16.21 49.09H17.05ZM23.49 49.09V41.11H19.71L17.96 49.09H23.49ZM32.3662 44.12L28.5862 49.79C28.5395 49.8647 28.4928 49.9207 28.4462 49.958C28.3995 49.986 28.3062 50 28.1662 50H27.6762C27.5362 50 27.4662 49.93 27.4662 49.79V43.07C27.4662 42.93 27.5362 42.86 27.6762 42.86H28.0962C28.2362 42.86 28.3062 42.93 28.3062 43.07V48.74H28.3762L32.1562 43.07C32.2028 42.9953 32.2495 42.944 32.2962 42.916C32.3428 42.8787 32.4362 42.86 32.5762 42.86H33.0662C33.2062 42.86 33.2762 42.93 33.2762 43.07V49.79C33.2762 49.93 33.2062 50 33.0662 50H32.6462C32.5062 50 32.4362 49.93 32.4362 49.79V44.12H32.3662ZM36.3456 48.04C36.3456 48.432 36.4576 48.74 36.6816 48.964C36.9056 49.188 37.2136 49.3 37.6056 49.3H38.7256C39.2203 49.3 39.6123 49.1553 39.9016 48.866C40.191 48.5767 40.3356 48.1847 40.3356 47.69V46.71H37.6056C37.2136 46.71 36.9056 46.822 36.6816 47.046C36.4576 47.27 36.3456 47.578 36.3456 47.97V48.04ZM35.5056 47.97C35.5056 47.298 35.6876 46.78 36.0516 46.416C36.4156 46.052 36.9336 45.87 37.6056 45.87H40.3356V44.89C40.3356 44.47 40.219 44.1433 39.9856 43.91C39.7523 43.6767 39.4256 43.56 39.0056 43.56H38.0956C37.6756 43.56 37.349 43.6767 37.1156 43.91C36.8823 44.1433 36.7656 44.47 36.7656 44.89C36.7656 45.03 36.6956 45.1 36.5556 45.1H36.1356C35.9956 45.1 35.9256 45.03 35.9256 44.89C35.9256 44.19 36.1123 43.6533 36.4856 43.28C36.859 42.9067 37.3956 42.72 38.0956 42.72H39.0056C39.7056 42.72 40.2423 42.9067 40.6156 43.28C40.989 43.6533 41.1756 44.19 41.1756 44.89V49.79C41.1756 49.93 41.1056 50 40.9656 50H40.5456C40.4056 50 40.3356 49.93 40.3356 49.79V49.23H40.2656C40.1723 49.4073 40.0556 49.5613 39.9156 49.692C39.785 49.804 39.6216 49.9067 39.4256 50C39.239 50.0933 39.0056 50.14 38.7256 50.14H37.6056C36.9336 50.14 36.4156 49.958 36.0516 49.594C35.6876 49.23 35.5056 48.712 35.5056 48.04V47.97ZM48.4429 42.86C48.5829 42.86 48.6529 42.93 48.6529 43.07V43.49C48.6529 43.63 48.5829 43.7 48.4429 43.7H44.5929V49.79C44.5929 49.93 44.5229 50 44.3829 50H43.9629C43.8229 50 43.7529 49.93 43.7529 49.79V43.07C43.7529 42.93 43.8229 42.86 43.9629 42.86H48.4429ZM55.4969 42.86C55.6369 42.86 55.7069 42.93 55.7069 43.07V49.79C55.7069 49.93 55.6369 50 55.4969 50H55.0769C54.9369 50 54.8669 49.93 54.8669 49.79V46.78H50.8769V49.79C50.8769 49.93 50.8069 50 50.6669 50H50.2469C50.1069 50 50.0369 49.93 50.0369 49.79V43.07C50.0369 42.93 50.1069 42.86 50.2469 42.86H50.6669C50.8069 42.86 50.8769 42.93 50.8769 43.07V45.94H54.8669V43.07C54.8669 42.93 54.9369 42.86 55.0769 42.86H55.4969ZM63.3296 44.89C63.3296 44.47 63.2129 44.1433 62.9796 43.91C62.7463 43.6767 62.4196 43.56 61.9996 43.56H60.3196C59.8996 43.56 59.5729 43.6767 59.3396 43.91C59.1063 44.1433 58.9896 44.47 58.9896 44.89V47.97C58.9896 48.39 59.1063 48.7167 59.3396 48.95C59.5729 49.1833 59.8996 49.3 60.3196 49.3H61.9996C62.4196 49.3 62.7463 49.1833 62.9796 48.95C63.2129 48.7167 63.3296 48.39 63.3296 47.97V44.89ZM64.1696 47.97C64.1696 48.67 63.9829 49.2067 63.6096 49.58C63.2363 49.9533 62.6996 50.14 61.9996 50.14H60.3196C59.6196 50.14 59.0829 49.9533 58.7096 49.58C58.3363 49.2067 58.1496 48.67 58.1496 47.97V44.89C58.1496 44.19 58.3363 43.6533 58.7096 43.28C59.0829 42.9067 59.6196 42.72 60.3196 42.72H61.9996C62.6996 42.72 63.2363 42.9067 63.6096 43.28C63.9829 43.6533 64.1696 44.19 64.1696 44.89V47.97ZM72.3507 47.97C72.3507 48.67 72.164 49.2067 71.7907 49.58C71.4174 49.9533 70.8807 50.14 70.1807 50.14H68.6407C67.9407 50.14 67.404 49.9533 67.0307 49.58C66.6574 49.2067 66.4707 48.67 66.4707 47.97V44.89C66.4707 44.19 66.6574 43.6533 67.0307 43.28C67.404 42.9067 67.9407 42.72 68.6407 42.72H70.1807C70.8807 42.72 71.4174 42.9067 71.7907 43.28C72.164 43.6533 72.3507 44.19 72.3507 44.89V45.1C72.3507 45.24 72.2807 45.31 72.1407 45.31H71.7207C71.5807 45.31 71.5107 45.24 71.5107 45.1V44.89C71.5107 44.47 71.394 44.1433 71.1607 43.91C70.9274 43.6767 70.6007 43.56 70.1807 43.56H68.6407C68.2207 43.56 67.894 43.6767 67.6607 43.91C67.4274 44.1433 67.3107 44.47 67.3107 44.89V47.97C67.3107 48.39 67.4274 48.7167 67.6607 48.95C67.894 49.1833 68.2207 49.3 68.6407 49.3H70.1807C70.6007 49.3 70.9274 49.1833 71.1607 48.95C71.394 48.7167 71.5107 48.39 71.5107 47.97V47.76C71.5107 47.62 71.5807 47.55 71.7207 47.55H72.1407C72.2807 47.55 72.3507 47.62 72.3507 47.76V47.97ZM79.1247 42.86C79.2647 42.86 79.3347 42.93 79.3347 43.07V43.49C79.3347 43.63 79.2647 43.7 79.1247 43.7H76.8847V49.79C76.8847 49.93 76.8147 50 76.6747 50H76.2547C76.1147 50 76.0447 49.93 76.0447 49.79V43.7H73.8047C73.6647 43.7 73.5947 43.63 73.5947 43.49V43.07C73.5947 42.93 73.6647 42.86 73.8047 42.86H79.1247ZM85.7603 44.12L81.9803 49.79C81.9336 49.8647 81.887 49.9207 81.8403 49.958C81.7936 49.986 81.7003 50 81.5603 50H81.0703C80.9303 50 80.8603 49.93 80.8603 49.79V43.07C80.8603 42.93 80.9303 42.86 81.0703 42.86H81.4903C81.6303 42.86 81.7003 42.93 81.7003 43.07V48.74H81.7703L85.5503 43.07C85.597 42.9953 85.6436 42.944 85.6903 42.916C85.737 42.8787 85.8303 42.86 85.9703 42.86H86.4603C86.6003 42.86 86.6703 42.93 86.6703 43.07V49.79C86.6703 49.93 86.6003 50 86.4603 50H86.0403C85.9003 50 85.8303 49.93 85.8303 49.79V44.12H85.7603ZM90.0898 46.64V49.79C90.0898 49.93 90.0198 50 89.8798 50H89.4598C89.3198 50 89.2498 49.93 89.2498 49.79V43.07C89.2498 42.93 89.3198 42.86 89.4598 42.86H89.8798C90.0198 42.86 90.0898 42.93 90.0898 43.07V45.8H92.1898L93.6598 43.07C93.7064 42.9953 93.7438 42.944 93.7718 42.916C93.8091 42.8787 93.8651 42.86 93.9398 42.86H94.4998C94.6584 42.86 94.7051 42.93 94.6398 43.07L92.8898 46.22L94.8498 49.79C94.9151 49.93 94.8684 50 94.7098 50H94.1498C94.0751 50 94.0191 49.986 93.9818 49.958C93.9538 49.9207 93.9164 49.8647 93.8698 49.79L92.1898 46.64H90.0898ZM97.0355 48.04C97.0355 48.432 97.1475 48.74 97.3715 48.964C97.5955 49.188 97.9035 49.3 98.2955 49.3H99.4155C99.9101 49.3 100.302 49.1553 100.591 48.866C100.881 48.5767 101.025 48.1847 101.025 47.69V46.71H98.2955C97.9035 46.71 97.5955 46.822 97.3715 47.046C97.1475 47.27 97.0355 47.578 97.0355 47.97V48.04ZM96.1955 47.97C96.1955 47.298 96.3775 46.78 96.7415 46.416C97.1055 46.052 97.6235 45.87 98.2955 45.87H101.025V44.89C101.025 44.47 100.909 44.1433 100.675 43.91C100.442 43.6767 100.115 43.56 99.6955 43.56H98.7855C98.3655 43.56 98.0388 43.6767 97.8055 43.91C97.5721 44.1433 97.4555 44.47 97.4555 44.89C97.4555 45.03 97.3855 45.1 97.2455 45.1H96.8255C96.6855 45.1 96.6155 45.03 96.6155 44.89C96.6155 44.19 96.8021 43.6533 97.1755 43.28C97.5488 42.9067 98.0855 42.72 98.7855 42.72H99.6955C100.395 42.72 100.932 42.9067 101.305 43.28C101.679 43.6533 101.865 44.19 101.865 44.89V49.79C101.865 49.93 101.795 50 101.655 50H101.235C101.095 50 101.025 49.93 101.025 49.79V49.23H100.955C100.862 49.4073 100.745 49.5613 100.605 49.692C100.475 49.804 100.311 49.9067 100.115 50C99.9288 50.0933 99.6955 50.14 99.4155 50.14H98.2955C97.6235 50.14 97.1055 49.958 96.7415 49.594C96.3775 49.23 96.1955 48.712 96.1955 48.04V47.97Z" fill="#1B1C21"/>
<path opacity="0.721842" d="M17.61 79C17.47 79 17.4 78.93 17.4 78.79V69.41C17.4 69.27 17.47 69.2 17.61 69.2H18.52C18.66 69.2 18.73 69.27 18.73 69.41V77.74H23.63V69.41C23.63 69.27 23.7 69.2 23.84 69.2H24.75C24.89 69.2 24.96 69.27 24.96 69.41V77.95L26.36 79.49C26.3973 79.5273 26.416 79.574 26.416 79.63C26.416 79.686 26.3973 79.7327 26.36 79.77L25.66 80.4C25.5573 80.484 25.464 80.484 25.38 80.4L24.12 79H17.61ZM32.5047 74.8V73.89C32.5047 73.5727 32.4067 73.3207 32.2107 73.134C32.024 72.938 31.772 72.84 31.4547 72.84H29.7747C29.4574 72.84 29.2007 72.938 29.0047 73.134C28.818 73.3207 28.7247 73.5727 28.7247 73.89V74.8H32.5047ZM28.7247 75.92V76.97C28.7247 77.2873 28.818 77.544 29.0047 77.74C29.2007 77.9267 29.4574 78.02 29.7747 78.02H31.4547C31.772 78.02 32.024 77.9267 32.2107 77.74C32.4067 77.544 32.5047 77.2873 32.5047 76.97V76.9C32.5047 76.76 32.5747 76.69 32.7147 76.69H33.4847C33.6247 76.69 33.6947 76.76 33.6947 76.9V76.97C33.6947 77.67 33.5034 78.2067 33.1207 78.58C32.7474 78.9533 32.192 79.14 31.4547 79.14H29.7747C29.0374 79.14 28.4774 78.9533 28.0947 78.58C27.7214 78.2067 27.5347 77.67 27.5347 76.97V73.89C27.5347 73.19 27.7214 72.6533 28.0947 72.28C28.4774 71.9067 29.0374 71.72 29.7747 71.72H31.4547C32.192 71.72 32.7474 71.9067 33.1207 72.28C33.5034 72.6533 33.6947 73.19 33.6947 73.89V75.71C33.6947 75.85 33.6247 75.92 33.4847 75.92H28.7247ZM36.9858 75.92V78.79C36.9858 78.93 36.9158 79 36.7758 79H36.0058C35.8658 79 35.7958 78.93 35.7958 78.79V72.07C35.7958 71.93 35.8658 71.86 36.0058 71.86H36.7758C36.9158 71.86 36.9858 71.93 36.9858 72.07V74.87H40.5558V72.07C40.5558 71.93 40.6258 71.86 40.7658 71.86H41.5358C41.6758 71.86 41.7458 71.93 41.7458 72.07V78.79C41.7458 78.93 41.6758 79 41.5358 79H40.7658C40.6258 79 40.5558 78.93 40.5558 78.79V75.92H36.9858ZM43.7052 76.83C43.7052 75.4767 44.4052 74.8 45.8052 74.8H48.3952V73.89C48.3952 73.5727 48.2972 73.3207 48.1012 73.134C47.9146 72.938 47.6626 72.84 47.3452 72.84H46.3652C46.0479 72.84 45.7912 72.938 45.5952 73.134C45.4086 73.3207 45.3152 73.5727 45.3152 73.89C45.3152 74.03 45.2452 74.1 45.1052 74.1H44.3352C44.1952 74.1 44.1252 74.03 44.1252 73.89C44.1252 73.19 44.3119 72.6533 44.6852 72.28C45.0679 71.9067 45.6279 71.72 46.3652 71.72H47.3452C48.0826 71.72 48.6379 71.9067 49.0112 72.28C49.3939 72.6533 49.5852 73.19 49.5852 73.89V78.79C49.5852 78.93 49.5152 79 49.3752 79H48.6052C48.4652 79 48.3952 78.93 48.3952 78.79V78.3H48.3252C48.2506 78.4587 48.1432 78.5987 48.0032 78.72C47.8819 78.8227 47.7232 78.916 47.5272 79C47.3312 79.0933 47.0839 79.14 46.7852 79.14H45.8052C44.4052 79.14 43.7052 78.4633 43.7052 77.11V76.83ZM44.8952 77.11C44.8952 77.39 44.9746 77.614 45.1332 77.782C45.3012 77.9407 45.5252 78.02 45.8052 78.02H46.9252C47.3452 78.02 47.6952 77.88 47.9752 77.6C48.2552 77.32 48.3952 76.97 48.3952 76.55V75.92H45.8052C45.5252 75.92 45.3012 76.004 45.1332 76.172C44.9746 76.3307 44.8952 76.55 44.8952 76.83V77.11Z" fill="#7E7E82"/>
<path d="M17.68 100C17.54 100 17.47 99.93 17.47 99.79V90.41C17.47 90.27 17.54 90.2 17.68 90.2H24.19C24.33 90.2 24.4 90.27 24.4 90.41V90.9C24.4 91.04 24.33 91.11 24.19 91.11H18.38V93.98H22.65C23.4247 93.98 24.0267 94.1947 24.456 94.624C24.8853 95.0533 25.1 95.6553 25.1 96.43V97.55C25.1 98.3247 24.8853 98.9267 24.456 99.356C24.0267 99.7853 23.4247 100 22.65 100H17.68ZM22.65 99.09C23.1447 99.09 23.5227 98.9593 23.784 98.698C24.0547 98.4273 24.19 98.0447 24.19 97.55V96.43C24.19 95.9353 24.0547 95.5573 23.784 95.296C23.5227 95.0253 23.1447 94.89 22.65 94.89H18.38V99.09H22.65ZM33.3566 97.97C33.3566 98.67 33.1699 99.2067 32.7966 99.58C32.4232 99.9533 31.8866 100.14 31.1866 100.14H29.6466C28.9466 100.14 28.4099 99.9533 28.0366 99.58C27.6632 99.2067 27.4766 98.67 27.4766 97.97V94.89C27.4766 94.19 27.6632 93.6533 28.0366 93.28C28.4099 92.9067 28.9466 92.72 29.6466 92.72H31.1866C31.8866 92.72 32.4232 92.9067 32.7966 93.28C33.1699 93.6533 33.3566 94.19 33.3566 94.89V96.57C33.3566 96.71 33.2866 96.78 33.1466 96.78H28.3166V97.97C28.3166 98.39 28.4332 98.7167 28.6666 98.95C28.8999 99.1833 29.2266 99.3 29.6466 99.3H31.1866C31.6066 99.3 31.9332 99.1833 32.1666 98.95C32.3999 98.7167 32.5166 98.39 32.5166 97.97C32.5166 97.83 32.5866 97.76 32.7266 97.76H33.1466C33.2866 97.76 33.3566 97.83 33.3566 97.97ZM28.3166 95.94H32.5166V94.89C32.5166 94.47 32.3999 94.1433 32.1666 93.91C31.9332 93.6767 31.6066 93.56 31.1866 93.56H29.6466C29.2266 93.56 28.8999 93.6767 28.6666 93.91C28.4332 94.1433 28.3166 94.47 28.3166 94.89V95.94ZM41.5409 97.97C41.5409 98.67 41.3543 99.2067 40.9809 99.58C40.6076 99.9533 40.0709 100.14 39.3709 100.14H37.8309C37.1309 100.14 36.5943 99.9533 36.2209 99.58C35.8476 99.2067 35.6609 98.67 35.6609 97.97V94.89C35.6609 94.19 35.8476 93.6533 36.2209 93.28C36.5943 92.9067 37.1309 92.72 37.8309 92.72H39.3709C40.0709 92.72 40.6076 92.9067 40.9809 93.28C41.3543 93.6533 41.5409 94.19 41.5409 94.89V95.1C41.5409 95.24 41.4709 95.31 41.3309 95.31H40.9109C40.7709 95.31 40.7009 95.24 40.7009 95.1V94.89C40.7009 94.47 40.5843 94.1433 40.3509 93.91C40.1176 93.6767 39.7909 93.56 39.3709 93.56H37.8309C37.4109 93.56 37.0843 93.6767 36.8509 93.91C36.6176 94.1433 36.5009 94.47 36.5009 94.89V97.97C36.5009 98.39 36.6176 98.7167 36.8509 98.95C37.0843 99.1833 37.4109 99.3 37.8309 99.3H39.3709C39.7909 99.3 40.1176 99.1833 40.3509 98.95C40.5843 98.7167 40.7009 98.39 40.7009 97.97V97.76C40.7009 97.62 40.7709 97.55 40.9109 97.55H41.3309C41.4709 97.55 41.5409 97.62 41.5409 97.76V97.97ZM49.2949 92.86C49.4349 92.86 49.5049 92.93 49.5049 93.07V99.79C49.5049 99.93 49.4349 100 49.2949 100H48.8749C48.7349 100 48.6649 99.93 48.6649 99.79V93.7H44.6749V99.79C44.6749 99.93 44.6049 100 44.4649 100H44.0449C43.9049 100 43.8349 99.93 43.8349 99.79V93.07C43.8349 92.93 43.9049 92.86 44.0449 92.86H49.2949ZM53.2077 98.25C53.077 98.922 52.8623 99.4073 52.5637 99.706C52.265 99.9953 51.8497 100.14 51.3177 100.14H51.1077C50.9677 100.14 50.8977 100.07 50.8977 99.93V99.51C50.8977 99.37 50.9677 99.3 51.1077 99.3H51.3177C51.8777 99.3 52.2277 98.95 52.3677 98.25L53.4177 93.07C53.4457 92.93 53.539 92.86 53.6977 92.86H57.4777C57.6177 92.86 57.6877 92.93 57.6877 93.07V99.79C57.6877 99.93 57.6177 100 57.4777 100H57.0577C56.9177 100 56.8477 99.93 56.8477 99.79V93.7H54.1177L53.2077 98.25ZM60.762 98.04C60.762 98.432 60.874 98.74 61.098 98.964C61.322 99.188 61.63 99.3 62.022 99.3H63.142C63.6367 99.3 64.0287 99.1553 64.318 98.866C64.6074 98.5767 64.752 98.1847 64.752 97.69V96.71H62.022C61.63 96.71 61.322 96.822 61.098 97.046C60.874 97.27 60.762 97.578 60.762 97.97V98.04ZM59.922 97.97C59.922 97.298 60.104 96.78 60.468 96.416C60.832 96.052 61.35 95.87 62.022 95.87H64.752V94.89C64.752 94.47 64.6354 94.1433 64.402 93.91C64.1687 93.6767 63.842 93.56 63.422 93.56H62.512C62.092 93.56 61.7654 93.6767 61.532 93.91C61.2987 94.1433 61.182 94.47 61.182 94.89C61.182 95.03 61.112 95.1 60.972 95.1H60.552C60.412 95.1 60.342 95.03 60.342 94.89C60.342 94.19 60.5287 93.6533 60.902 93.28C61.2754 92.9067 61.812 92.72 62.512 92.72H63.422C64.122 92.72 64.6587 92.9067 65.032 93.28C65.4054 93.6533 65.592 94.19 65.592 94.89V99.79C65.592 99.93 65.522 100 65.382 100H64.962C64.822 100 64.752 99.93 64.752 99.79V99.23H64.682C64.5887 99.4073 64.472 99.5613 64.332 99.692C64.2014 99.804 64.038 99.9067 63.842 100C63.6554 100.093 63.422 100.14 63.142 100.14H62.022C61.35 100.14 60.832 99.958 60.468 99.594C60.104 99.23 59.922 98.712 59.922 98.04V97.97ZM72.6493 92.86C72.7893 92.86 72.8593 92.93 72.8593 93.07V93.49C72.8593 93.63 72.7893 93.7 72.6493 93.7H70.4093V99.79C70.4093 99.93 70.3393 100 70.1993 100H69.7793C69.6393 100 69.5693 99.93 69.5693 99.79V93.7H67.3293C67.1893 93.7 67.1193 93.63 67.1193 93.49V93.07C67.1193 92.93 67.1893 92.86 67.3293 92.86H72.6493ZM79.8449 92.86C79.9849 92.86 80.0549 92.93 80.0549 93.07V99.79C80.0549 99.93 79.9849 100 79.8449 100H79.4249C79.2849 100 79.2149 99.93 79.2149 99.79V96.78H75.2249V99.79C75.2249 99.93 75.1549 100 75.0149 100H74.5949C74.4549 100 74.3849 99.93 74.3849 99.79V93.07C74.3849 92.93 74.4549 92.86 74.5949 92.86H75.0149C75.1549 92.86 75.2249 92.93 75.2249 93.07V95.94H79.2149V93.07C79.2149 92.93 79.2849 92.86 79.4249 92.86H79.8449ZM87.6777 94.89C87.6777 94.47 87.561 94.1433 87.3277 93.91C87.0943 93.6767 86.7677 93.56 86.3477 93.56H84.6677C84.2477 93.56 83.921 93.6767 83.6877 93.91C83.4543 94.1433 83.3377 94.47 83.3377 94.89V97.97C83.3377 98.39 83.4543 98.7167 83.6877 98.95C83.921 99.1833 84.2477 99.3 84.6677 99.3H86.3477C86.7677 99.3 87.0943 99.1833 87.3277 98.95C87.561 98.7167 87.6777 98.39 87.6777 97.97V94.89ZM88.5177 97.97C88.5177 98.67 88.331 99.2067 87.9577 99.58C87.5843 99.9533 87.0477 100.14 86.3477 100.14H84.6677C83.9677 100.14 83.431 99.9533 83.0577 99.58C82.6843 99.2067 82.4977 98.67 82.4977 97.97V94.89C82.4977 94.19 82.6843 93.6533 83.0577 93.28C83.431 92.9067 83.9677 92.72 84.6677 92.72H86.3477C87.0477 92.72 87.5843 92.9067 87.9577 93.28C88.331 93.6533 88.5177 94.19 88.5177 94.89V97.97Z" fill="#1B1C21"/>
</svg>
