<svg width="260" height="200" viewBox="0 0 260 200" fill="none" xmlns="http://www.w3.org/2000/svg">
<rect width="260" height="200" rx="6" fill="white"/>
<rect x="125" y="152" width="119" height="32" rx="16" fill="#FF3E79"/>
<path d="M145.003 166.24C145.003 166.528 144.947 166.76 144.835 166.936C144.723 167.104 144.599 167.236 144.463 167.332C144.303 167.444 144.123 167.52 143.923 167.56V167.68C144.147 167.728 144.347 167.816 144.523 167.944C144.675 168.056 144.811 168.216 144.931 168.424C145.059 168.624 145.123 168.896 145.123 169.24V170.02C145.123 171.42 144.423 172.12 143.023 172.12H139.723C138.323 172.12 137.623 171.42 137.623 170.02V169.42C137.623 169.22 137.723 169.12 137.923 169.12H139.243C139.443 169.12 139.543 169.22 139.543 169.42V169.78C139.543 170.22 139.763 170.44 140.203 170.44H142.543C142.983 170.44 143.203 170.22 143.203 169.78V169.24C143.203 168.8 142.983 168.58 142.543 168.58H140.803C140.603 168.58 140.503 168.48 140.503 168.28V167.2C140.503 167 140.603 166.9 140.803 166.9H142.423C142.863 166.9 143.083 166.68 143.083 166.24V165.82C143.083 165.38 142.863 165.16 142.423 165.16H140.323C139.883 165.16 139.663 165.38 139.663 165.82V166.18C139.663 166.38 139.563 166.48 139.363 166.48H138.043C137.843 166.48 137.743 166.38 137.743 166.18V165.58C137.743 164.18 138.443 163.48 139.843 163.48H142.903C144.303 163.48 145.003 164.18 145.003 165.58V166.24ZM148.493 170.26L147.953 171.7C147.913 171.788 147.861 171.86 147.797 171.916C147.741 171.972 147.653 172 147.533 172H146.033C145.833 172 145.773 171.9 145.853 171.7L148.793 163.9C148.873 163.7 149.033 163.6 149.273 163.6H151.013C151.133 163.6 151.221 163.628 151.277 163.684C151.341 163.74 151.393 163.812 151.433 163.9L154.373 171.7C154.453 171.9 154.393 172 154.193 172H152.693C152.573 172 152.481 171.972 152.417 171.916C152.361 171.86 152.313 171.788 152.273 171.7L151.733 170.26H148.493ZM151.133 168.58L150.173 166H150.053L149.093 168.58H151.133ZM157.263 166.78H158.883L160.443 163.9C160.491 163.812 160.551 163.74 160.623 163.684C160.703 163.628 160.803 163.6 160.923 163.6H162.423C162.511 163.6 162.575 163.628 162.615 163.684C162.655 163.74 162.651 163.812 162.603 163.9L160.563 167.56L162.843 171.7C162.891 171.788 162.895 171.86 162.855 171.916C162.815 171.972 162.751 172 162.663 172H161.163C161.043 172 160.943 171.972 160.863 171.916C160.791 171.86 160.731 171.788 160.683 171.7L158.943 168.46H157.263V171.7C157.263 171.9 157.163 172 156.963 172H155.643C155.443 172 155.343 171.9 155.343 171.7V163.9C155.343 163.7 155.443 163.6 155.643 163.6H156.963C157.163 163.6 157.263 163.7 157.263 163.9V166.78ZM165.654 170.26L165.114 171.7C165.074 171.788 165.022 171.86 164.958 171.916C164.902 171.972 164.814 172 164.694 172H163.194C162.994 172 162.934 171.9 163.014 171.7L165.954 163.9C166.034 163.7 166.194 163.6 166.434 163.6H168.174C168.294 163.6 168.382 163.628 168.438 163.684C168.502 163.74 168.554 163.812 168.594 163.9L171.534 171.7C171.614 171.9 171.554 172 171.354 172H169.854C169.734 172 169.642 171.972 169.578 171.916C169.522 171.86 169.474 171.788 169.434 171.7L168.894 170.26H165.654ZM168.294 168.58L167.334 166H167.214L166.254 168.58H168.294ZM179.524 166.24C179.524 166.528 179.468 166.76 179.356 166.936C179.244 167.104 179.12 167.236 178.984 167.332C178.824 167.444 178.644 167.52 178.444 167.56V167.68C178.668 167.728 178.868 167.816 179.044 167.944C179.196 168.056 179.332 168.216 179.452 168.424C179.58 168.624 179.644 168.896 179.644 169.24V170.02C179.644 171.42 178.944 172.12 177.544 172.12H174.244C172.844 172.12 172.144 171.42 172.144 170.02V169.42C172.144 169.22 172.244 169.12 172.444 169.12H173.764C173.964 169.12 174.064 169.22 174.064 169.42V169.78C174.064 170.22 174.284 170.44 174.724 170.44H177.064C177.504 170.44 177.724 170.22 177.724 169.78V169.24C177.724 168.8 177.504 168.58 177.064 168.58H175.324C175.124 168.58 175.024 168.48 175.024 168.28V167.2C175.024 167 175.124 166.9 175.324 166.9H176.944C177.384 166.9 177.604 166.68 177.604 166.24V165.82C177.604 165.38 177.384 165.16 176.944 165.16H174.844C174.404 165.16 174.184 165.38 174.184 165.82V166.18C174.184 166.38 174.084 166.48 173.884 166.48H172.564C172.364 166.48 172.264 166.38 172.264 166.18V165.58C172.264 164.18 172.964 163.48 174.364 163.48H177.424C178.824 163.48 179.524 164.18 179.524 165.58V166.24ZM183.014 170.26L182.474 171.7C182.434 171.788 182.382 171.86 182.318 171.916C182.262 171.972 182.174 172 182.054 172H180.554C180.354 172 180.294 171.9 180.374 171.7L183.314 163.9C183.394 163.7 183.554 163.6 183.794 163.6H185.534C185.654 163.6 185.742 163.628 185.798 163.684C185.862 163.74 185.914 163.812 185.954 163.9L188.894 171.7C188.974 171.9 188.914 172 188.714 172H187.214C187.094 172 187.002 171.972 186.938 171.916C186.882 171.86 186.834 171.788 186.794 171.7L186.254 170.26H183.014ZM185.654 168.58L184.694 166H184.574L183.614 168.58H185.654ZM192.449 171.7C192.449 171.9 192.349 172 192.149 172H190.829C190.629 172 190.529 171.9 190.529 171.7V165.28H188.129C187.929 165.28 187.829 165.18 187.829 164.98V163.9C187.829 163.7 187.929 163.6 188.129 163.6H194.849C195.049 163.6 195.149 163.7 195.149 163.9V164.98C195.149 165.18 195.049 165.28 194.849 165.28H192.449V171.7ZM201.177 166.12C202.577 166.12 203.277 166.82 203.277 168.22V169.9C203.277 171.3 202.577 172 201.177 172H196.377C196.177 172 196.077 171.9 196.077 171.7V163.9C196.077 163.7 196.177 163.6 196.377 163.6H197.697C197.897 163.6 197.997 163.7 197.997 163.9V166.12H201.177ZM200.697 170.32C201.137 170.32 201.357 170.1 201.357 169.66V168.46C201.357 168.02 201.137 167.8 200.697 167.8H197.997V170.32H200.697Z" fill="white"/>
<rect x="212" y="156" width="24" height="24" rx="12" fill="#FF3E79"/>
<path fill-rule="evenodd" clip-rule="evenodd" d="M224.8 168L221.792 165.229C221.364 164.835 221.361 164.161 221.785 163.764L221.92 163.637C222.303 163.278 222.899 163.276 223.284 163.633L227.938 167.943C227.971 167.974 227.971 168.026 227.938 168.057L223.347 172.309C222.926 172.698 222.276 172.696 221.858 172.304C221.394 171.87 221.398 171.134 221.865 170.704L224.8 168Z" fill="white"/>
<path d="M19.15 171.1C19.01 171.1 18.94 171.03 18.94 170.89V170.61C18.94 170.507 18.9587 170.433 18.996 170.386C19.0427 170.33 19.094 170.265 19.15 170.19L22.37 167.18V167.11H17.47C17.33 167.11 17.26 167.04 17.26 166.9V166.41C17.26 166.27 17.33 166.2 17.47 166.2H23.63C23.77 166.2 23.84 166.27 23.84 166.41V166.69C23.84 166.793 23.8167 166.872 23.77 166.928C23.7327 166.975 23.686 167.035 23.63 167.11L20.41 170.12V170.19H21.53C22.3047 170.19 22.9067 170.405 23.336 170.834C23.7653 171.263 23.98 171.865 23.98 172.64V173.69C23.98 174.465 23.7653 175.067 23.336 175.496C22.9067 175.925 22.3047 176.14 21.53 176.14H19.43C18.6553 176.14 18.0533 175.925 17.624 175.496C17.1947 175.067 16.98 174.465 16.98 173.69V173.27C16.98 173.13 17.05 173.06 17.19 173.06H17.68C17.82 173.06 17.89 173.13 17.89 173.27V173.69C17.89 174.185 18.0207 174.567 18.282 174.838C18.5527 175.099 18.9353 175.23 19.43 175.23H21.53C22.0247 175.23 22.4027 175.099 22.664 174.838C22.9347 174.567 23.07 174.185 23.07 173.69V172.64C23.07 172.145 22.9347 171.767 22.664 171.506C22.4027 171.235 22.0247 171.1 21.53 171.1H19.15ZM33.2155 168.51C33.2155 168.015 33.0801 167.637 32.8095 167.376C32.5481 167.105 32.1701 166.97 31.6755 166.97H29.0855C28.5908 166.97 28.2081 167.105 27.9375 167.376C27.6761 167.637 27.5455 168.015 27.5455 168.51V173.69C27.5455 174.185 27.6761 174.567 27.9375 174.838C28.2081 175.099 28.5908 175.23 29.0855 175.23H31.6755C32.1701 175.23 32.5481 175.099 32.8095 174.838C33.0801 174.567 33.2155 174.185 33.2155 173.69V168.51ZM34.1255 173.69C34.1255 174.465 33.9108 175.067 33.4815 175.496C33.0521 175.925 32.4501 176.14 31.6755 176.14H29.0855C28.3108 176.14 27.7088 175.925 27.2795 175.496C26.8501 175.067 26.6355 174.465 26.6355 173.69V168.51C26.6355 167.735 26.8501 167.133 27.2795 166.704C27.7088 166.275 28.3108 166.06 29.0855 166.06H31.6755C32.4501 166.06 33.0521 166.275 33.4815 166.704C33.9108 167.133 34.1255 167.735 34.1255 168.51V173.69ZM36.28 172.15C36.14 172.15 36.07 172.08 36.07 171.94V171.45C36.07 171.31 36.14 171.24 36.28 171.24H40.97C41.11 171.24 41.18 171.31 41.18 171.45V171.94C41.18 172.08 41.11 172.15 40.97 172.15H36.28ZM44.3873 167.11H42.2873C42.1473 167.11 42.0773 167.04 42.0773 166.9V166.41C42.0773 166.27 42.1473 166.2 42.2873 166.2H45.0873C45.2273 166.2 45.2973 166.27 45.2973 166.41V175.79C45.2973 175.93 45.2273 176 45.0873 176H44.5973C44.4573 176 44.3873 175.93 44.3873 175.79V167.11ZM49.4238 175.02V175.09H54.6738C54.8138 175.09 54.8838 175.16 54.8838 175.3V175.79C54.8838 175.93 54.8138 176 54.6738 176H48.2338C48.0938 176 48.0238 175.93 48.0238 175.79V175.37C48.0238 175.267 48.0425 175.193 48.0798 175.146C48.1265 175.09 48.1778 175.025 48.2338 174.95L53.0638 170.54C53.3438 170.288 53.5632 170.059 53.7218 169.854C53.8898 169.649 53.9738 169.387 53.9738 169.07V168.51C53.9738 168.015 53.8385 167.637 53.5678 167.376C53.3065 167.105 52.9285 166.97 52.4338 166.97H50.4738C49.9792 166.97 49.5965 167.105 49.3258 167.376C49.0645 167.637 48.9338 168.015 48.9338 168.51V168.93C48.9338 169.07 48.8638 169.14 48.7238 169.14H48.2338C48.0938 169.14 48.0238 169.07 48.0238 168.93V168.51C48.0238 167.735 48.2385 167.133 48.6678 166.704C49.0972 166.275 49.6992 166.06 50.4738 166.06H52.4338C53.2085 166.06 53.8105 166.275 54.2398 166.704C54.6692 167.133 54.8838 167.735 54.8838 168.51V169.07C54.8838 169.313 54.8512 169.532 54.7858 169.728C54.7205 169.924 54.6365 170.106 54.5338 170.274C54.4312 170.433 54.3098 170.582 54.1698 170.722C54.0392 170.853 53.9038 170.979 53.7638 171.1L49.4238 175.02ZM64.1893 168.51C64.1893 168.015 64.054 167.637 63.7833 167.376C63.522 167.105 63.144 166.97 62.6493 166.97H60.0593C59.5646 166.97 59.182 167.105 58.9113 167.376C58.65 167.637 58.5193 168.015 58.5193 168.51V173.69C58.5193 174.185 58.65 174.567 58.9113 174.838C59.182 175.099 59.5646 175.23 60.0593 175.23H62.6493C63.144 175.23 63.522 175.099 63.7833 174.838C64.054 174.567 64.1893 174.185 64.1893 173.69V168.51ZM65.0993 173.69C65.0993 174.465 64.8846 175.067 64.4553 175.496C64.026 175.925 63.424 176.14 62.6493 176.14H60.0593C59.2846 176.14 58.6826 175.925 58.2533 175.496C57.824 175.067 57.6093 174.465 57.6093 173.69V168.51C57.6093 167.735 57.824 167.133 58.2533 166.704C58.6826 166.275 59.2846 166.06 60.0593 166.06H62.6493C63.424 166.06 64.026 166.275 64.4553 166.704C64.8846 167.133 65.0993 167.735 65.0993 168.51V173.69ZM74.5982 176C74.4955 176 74.4209 175.986 74.3742 175.958C74.3275 175.921 74.2855 175.865 74.2482 175.79L71.6582 170.4H71.5882V175.79C71.5882 175.93 71.5182 176 71.3782 176H70.9582C70.8182 176 70.7482 175.93 70.7482 175.79V169.07C70.7482 168.93 70.8182 168.86 70.9582 168.86H71.5182C71.6209 168.86 71.6955 168.879 71.7422 168.916C71.7889 168.944 71.8309 168.995 71.8682 169.07L74.6682 174.88H74.7382L77.5382 169.07C77.5755 168.995 77.6175 168.944 77.6642 168.916C77.7109 168.879 77.7855 168.86 77.8882 168.86H78.4482C78.5882 168.86 78.6582 168.93 78.6582 169.07V175.79C78.6582 175.93 78.5882 176 78.4482 176H78.0282C77.8882 176 77.8182 175.93 77.8182 175.79V170.4H77.7482L75.1582 175.79C75.1209 175.865 75.0789 175.921 75.0322 175.958C74.9855 175.986 74.9109 176 74.8082 176H74.5982ZM86.1431 170.12L82.3631 175.79C82.3165 175.865 82.2698 175.921 82.2231 175.958C82.1765 175.986 82.0831 176 81.9431 176H81.4531C81.3131 176 81.2431 175.93 81.2431 175.79V169.07C81.2431 168.93 81.3131 168.86 81.4531 168.86H81.8731C82.0131 168.86 82.0831 168.93 82.0831 169.07V174.74H82.1531L85.9331 169.07C85.9798 168.995 86.0265 168.944 86.0731 168.916C86.1198 168.879 86.2131 168.86 86.3531 168.86H86.8431C86.9831 168.86 87.0531 168.93 87.0531 169.07V175.79C87.0531 175.93 86.9831 176 86.8431 176H86.4231C86.2831 176 86.2131 175.93 86.2131 175.79V170.12H86.1431ZM95.0926 168.86C95.2326 168.86 95.3026 168.93 95.3026 169.07V175.79C95.3026 175.93 95.2326 176 95.0926 176H94.6726C94.5326 176 94.4626 175.93 94.4626 175.79V172.78H90.4726V175.79C90.4726 175.93 90.4026 176 90.2626 176H89.8426C89.7026 176 89.6326 175.93 89.6326 175.79V169.07C89.6326 168.93 89.7026 168.86 89.8426 168.86H90.2626C90.4026 168.86 90.4726 168.93 90.4726 169.07V171.94H94.4626V169.07C94.4626 168.93 94.5326 168.86 94.6726 168.86H95.0926Z" fill="#1B1C21"/>
<path opacity="0.721842" d="M17.26 147.51C17.26 145.877 18.1 145.06 19.78 145.06H23C24.68 145.06 25.52 145.877 25.52 147.51V148.07C25.52 148.21 25.45 148.28 25.31 148.28H24.4C24.26 148.28 24.19 148.21 24.19 148.07V147.51C24.19 146.717 23.7933 146.32 23 146.32H19.78C18.9867 146.32 18.59 146.717 18.59 147.51V152.69C18.59 153.483 18.9867 153.88 19.78 153.88H23C23.7933 153.88 24.19 153.483 24.19 152.69V152.13C24.19 151.99 24.26 151.92 24.4 151.92H25.31C25.45 151.92 25.52 151.99 25.52 152.13V152.69C25.52 154.323 24.68 155.14 23 155.14H19.78C18.1 155.14 17.26 154.323 17.26 152.69V147.51ZM31.47 153.88C31.7873 153.88 32.0393 153.787 32.226 153.6C32.422 153.404 32.52 153.147 32.52 152.83V149.89C32.52 149.573 32.422 149.321 32.226 149.134C32.0393 148.938 31.7873 148.84 31.47 148.84H30.28C29.86 148.84 29.51 148.98 29.23 149.26C28.95 149.54 28.81 149.89 28.81 150.31V153.88H31.47ZM28.81 155V157.45C28.81 157.59 28.74 157.66 28.6 157.66H27.83C27.69 157.66 27.62 157.59 27.62 157.45V148.07C27.62 147.93 27.69 147.86 27.83 147.86H28.6C28.74 147.86 28.81 147.93 28.81 148.07V148.56H28.88C28.9547 148.401 29.062 148.261 29.202 148.14C29.3233 148.037 29.482 147.944 29.678 147.86C29.874 147.767 30.1213 147.72 30.42 147.72H31.47C32.2073 147.72 32.7627 147.907 33.136 148.28C33.5187 148.653 33.71 149.19 33.71 149.89V152.83C33.71 153.53 33.5187 154.067 33.136 154.44C32.7627 154.813 32.2073 155 31.47 155H28.81ZM40.7095 149.89C40.7095 149.573 40.6115 149.321 40.4155 149.134C40.2288 148.938 39.9768 148.84 39.6595 148.84H37.9095C37.5921 148.84 37.3355 148.938 37.1395 149.134C36.9528 149.321 36.8595 149.573 36.8595 149.89V152.97C36.8595 153.287 36.9528 153.544 37.1395 153.74C37.3355 153.927 37.5921 154.02 37.9095 154.02H39.6595C39.9768 154.02 40.2288 153.927 40.4155 153.74C40.6115 153.544 40.7095 153.287 40.7095 152.97V149.89ZM41.8995 152.97C41.8995 153.67 41.7081 154.207 41.3255 154.58C40.9521 154.953 40.3968 155.14 39.6595 155.14H37.9095C37.1721 155.14 36.6121 154.953 36.2295 154.58C35.8561 154.207 35.6695 153.67 35.6695 152.97V149.89C35.6695 149.19 35.8561 148.653 36.2295 148.28C36.6121 147.907 37.1721 147.72 37.9095 147.72H39.6595C40.3968 147.72 40.9521 147.907 41.3255 148.28C41.7081 148.653 41.8995 149.19 41.8995 149.89V152.97ZM46.9389 151.78H45.1889V154.79C45.1889 154.93 45.1189 155 44.9789 155H44.2089C44.0689 155 43.9989 154.93 43.9989 154.79V148.07C43.9989 147.93 44.0689 147.86 44.2089 147.86H44.9789C45.1189 147.86 45.1889 147.93 45.1889 148.07V150.66H46.9389L48.3389 148.07C48.3762 147.995 48.4182 147.944 48.4649 147.916C48.5116 147.879 48.5862 147.86 48.6889 147.86H49.5289C49.6876 147.86 49.7342 147.93 49.6689 148.07L47.9189 151.22L49.8789 154.79C49.9442 154.93 49.8976 155 49.7389 155H48.8989C48.7962 155 48.7216 154.986 48.6749 154.958C48.6282 154.921 48.5862 154.865 48.5489 154.79L46.9389 151.78Z" fill="#7E7E82"/>
<path opacity="0.721842" d="M22.72 24.66C23.5133 24.66 23.91 24.2633 23.91 23.47V21.65C23.91 20.8567 23.5133 20.46 22.72 20.46H18.73V24.66H22.72ZM18.73 25.92V28.79C18.73 28.93 18.66 29 18.52 29H17.61C17.47 29 17.4 28.93 17.4 28.79V19.41C17.4 19.27 17.47 19.2 17.61 19.2H22.72C24.4 19.2 25.24 20.0167 25.24 21.65V23.47C25.24 25.1033 24.4 25.92 22.72 25.92H18.73ZM32.1766 24.8V23.89C32.1766 23.5727 32.0786 23.3207 31.8826 23.134C31.6959 22.938 31.4439 22.84 31.1266 22.84H29.4466C29.1292 22.84 28.8726 22.938 28.6766 23.134C28.4899 23.3207 28.3966 23.5727 28.3966 23.89V24.8H32.1766ZM28.3966 25.92V26.97C28.3966 27.2873 28.4899 27.544 28.6766 27.74C28.8726 27.9267 29.1292 28.02 29.4466 28.02H31.1266C31.4439 28.02 31.6959 27.9267 31.8826 27.74C32.0786 27.544 32.1766 27.2873 32.1766 26.97V26.9C32.1766 26.76 32.2466 26.69 32.3866 26.69H33.1566C33.2966 26.69 33.3666 26.76 33.3666 26.9V26.97C33.3666 27.67 33.1752 28.2067 32.7926 28.58C32.4192 28.9533 31.8639 29.14 31.1266 29.14H29.4466C28.7092 29.14 28.1492 28.9533 27.7666 28.58C27.3932 28.2067 27.2066 27.67 27.2066 26.97V23.89C27.2066 23.19 27.3932 22.6533 27.7666 22.28C28.1492 21.9067 28.7092 21.72 29.4466 21.72H31.1266C31.8639 21.72 32.4192 21.9067 32.7926 22.28C33.1752 22.6533 33.3666 23.19 33.3666 23.89V25.71C33.3666 25.85 33.2966 25.92 33.1566 25.92H28.3966ZM39.5277 27.46L42.0477 22.07C42.085 21.9953 42.127 21.944 42.1737 21.916C42.2297 21.8787 42.3277 21.86 42.4677 21.86H43.3077C43.4477 21.86 43.5177 21.93 43.5177 22.07V28.79C43.5177 28.93 43.4477 29 43.3077 29H42.5377C42.3977 29 42.3277 28.93 42.3277 28.79V24.17H42.2577L40.0877 28.79C40.0503 28.8647 40.0037 28.9207 39.9477 28.958C39.901 28.986 39.8077 29 39.6677 29H39.3177C39.1777 29 39.0797 28.986 39.0237 28.958C38.977 28.9207 38.935 28.8647 38.8977 28.79L36.7277 24.17H36.6577V28.79C36.6577 28.93 36.5877 29 36.4477 29H35.6777C35.5377 29 35.4677 28.93 35.4677 28.79V22.07C35.4677 21.93 35.5377 21.86 35.6777 21.86H36.5177C36.6577 21.86 36.751 21.8787 36.7977 21.916C36.8537 21.944 36.9003 21.9953 36.9377 22.07L39.4577 27.46H39.5277ZM50.6626 23.89C50.6626 23.5727 50.5646 23.3207 50.3686 23.134C50.1819 22.938 49.9299 22.84 49.6126 22.84H47.8626C47.5452 22.84 47.2886 22.938 47.0926 23.134C46.9059 23.3207 46.8126 23.5727 46.8126 23.89V26.97C46.8126 27.2873 46.9059 27.544 47.0926 27.74C47.2886 27.9267 47.5452 28.02 47.8626 28.02H49.6126C49.9299 28.02 50.1819 27.9267 50.3686 27.74C50.5646 27.544 50.6626 27.2873 50.6626 26.97V23.89ZM51.8526 26.97C51.8526 27.67 51.6612 28.2067 51.2786 28.58C50.9052 28.9533 50.3499 29.14 49.6126 29.14H47.8626C47.1252 29.14 46.5652 28.9533 46.1826 28.58C45.8092 28.2067 45.6226 27.67 45.6226 26.97V23.89C45.6226 23.19 45.8092 22.6533 46.1826 22.28C46.5652 21.9067 47.1252 21.72 47.8626 21.72H49.6126C50.3499 21.72 50.9052 21.9067 51.2786 22.28C51.6612 22.6533 51.8526 23.19 51.8526 23.89V26.97ZM55.142 25.92V28.79C55.142 28.93 55.072 29 54.932 29H54.162C54.022 29 53.952 28.93 53.952 28.79V22.07C53.952 21.93 54.022 21.86 54.162 21.86H54.932C55.072 21.86 55.142 21.93 55.142 22.07V24.87H58.712V22.07C58.712 21.93 58.782 21.86 58.922 21.86H59.692C59.832 21.86 59.902 21.93 59.902 22.07V28.79C59.902 28.93 59.832 29 59.692 29H58.922C58.782 29 58.712 28.93 58.712 28.79V25.92H55.142ZM63.7515 29C63.6115 29 63.5415 28.93 63.5415 28.79V22.98H61.3715C61.2315 22.98 61.1615 22.91 61.1615 22.77V22.07C61.1615 21.93 61.2315 21.86 61.3715 21.86H66.9015C67.0415 21.86 67.1115 21.93 67.1115 22.07V22.77C67.1115 22.91 67.0415 22.98 66.9015 22.98H64.7315V28.79C64.7315 28.93 64.6615 29 64.5215 29H63.7515ZM69.5659 25.92V28.79C69.5659 28.93 69.4959 29 69.3559 29H68.5859C68.4459 29 68.3759 28.93 68.3759 28.79V22.07C68.3759 21.93 68.4459 21.86 68.5859 21.86H69.3559C69.4959 21.86 69.5659 21.93 69.5659 22.07V24.87H73.1359V22.07C73.1359 21.93 73.2059 21.86 73.3459 21.86H74.1159C74.2559 21.86 74.3259 21.93 74.3259 22.07V28.79C74.3259 28.93 74.2559 29 74.1159 29H73.3459C73.2059 29 73.1359 28.93 73.1359 28.79V25.92H69.5659ZM79.9253 27.88C80.2053 27.88 80.4246 27.8007 80.5833 27.642C80.7513 27.474 80.8353 27.25 80.8353 26.97V26.27C80.8353 25.99 80.7513 25.7707 80.5833 25.612C80.4246 25.444 80.2053 25.36 79.9253 25.36H77.7553V27.88H79.9253ZM76.7753 29C76.6353 29 76.5653 28.93 76.5653 28.79V22.07C76.5653 21.93 76.6353 21.86 76.7753 21.86H77.5453C77.6853 21.86 77.7553 21.93 77.7553 22.07V24.24H79.9253C81.3253 24.24 82.0253 24.9167 82.0253 26.27V26.97C82.0253 28.3233 81.3253 29 79.9253 29H76.7753ZM84.4053 28.79C84.4053 28.93 84.3353 29 84.1953 29H83.4253C83.2853 29 83.2153 28.93 83.2153 28.79V22.07C83.2153 21.93 83.2853 21.86 83.4253 21.86H84.1953C84.3353 21.86 84.4053 21.93 84.4053 22.07V28.79ZM91.4715 24.8V23.89C91.4715 23.5727 91.3735 23.3207 91.1775 23.134C90.9908 22.938 90.7388 22.84 90.4215 22.84H88.7415C88.4242 22.84 88.1675 22.938 87.9715 23.134C87.7848 23.3207 87.6915 23.5727 87.6915 23.89V24.8H91.4715ZM87.6915 25.92V26.97C87.6915 27.2873 87.7848 27.544 87.9715 27.74C88.1675 27.9267 88.4242 28.02 88.7415 28.02H90.4215C90.7388 28.02 90.9908 27.9267 91.1775 27.74C91.3735 27.544 91.4715 27.2873 91.4715 26.97V26.9C91.4715 26.76 91.5415 26.69 91.6815 26.69H92.4515C92.5915 26.69 92.6615 26.76 92.6615 26.9V26.97C92.6615 27.67 92.4702 28.2067 92.0875 28.58C91.7142 28.9533 91.1588 29.14 90.4215 29.14H88.7415C88.0042 29.14 87.4442 28.9533 87.0615 28.58C86.6882 28.2067 86.5015 27.67 86.5015 26.97V23.89C86.5015 23.19 86.6882 22.6533 87.0615 22.28C87.4442 21.9067 88.0042 21.72 88.7415 21.72H90.4215C91.1588 21.72 91.7142 21.9067 92.0875 22.28C92.4702 22.6533 92.6615 23.19 92.6615 23.89V25.71C92.6615 25.85 92.5915 25.92 92.4515 25.92H87.6915ZM102.003 22.07C102.031 21.9953 102.069 21.944 102.115 21.916C102.171 21.8787 102.251 21.86 102.353 21.86H103.193C103.343 21.86 103.389 21.93 103.333 22.07L100.603 29C100.407 29.4947 100.216 29.91 100.029 30.246C99.8426 30.582 99.642 30.8527 99.4273 31.058C99.2126 31.2727 98.9793 31.4267 98.7273 31.52C98.4753 31.6133 98.1906 31.66 97.8733 31.66H97.5933C97.4533 31.66 97.3833 31.59 97.3833 31.45V30.75C97.3833 30.61 97.4533 30.54 97.5933 30.54H97.8733C98.228 30.54 98.5173 30.4233 98.7413 30.19C98.9746 29.9567 99.1986 29.56 99.4133 29L96.6833 22.07C96.6273 21.93 96.674 21.86 96.8233 21.86H97.6633C97.766 21.86 97.8406 21.8787 97.8873 21.916C97.9433 21.944 97.9853 21.9953 98.0133 22.07L99.9733 27.32H100.043L102.003 22.07ZM105.738 26.97C105.738 27.2873 105.832 27.544 106.018 27.74C106.214 27.9267 106.471 28.02 106.788 28.02H108.398C108.716 28.02 108.968 27.9267 109.154 27.74C109.35 27.544 109.448 27.2873 109.448 26.97V26.62C109.448 26.48 109.518 26.41 109.658 26.41H110.428C110.568 26.41 110.638 26.48 110.638 26.62V26.97C110.638 27.67 110.447 28.2067 110.064 28.58C109.691 28.9533 109.136 29.14 108.398 29.14H106.788C106.051 29.14 105.491 28.9533 105.108 28.58C104.735 28.2067 104.548 27.67 104.548 26.97V23.89C104.548 23.19 104.735 22.6533 105.108 22.28C105.491 21.9067 106.051 21.72 106.788 21.72H108.398C109.136 21.72 109.691 21.9067 110.064 22.28C110.447 22.6533 110.638 23.19 110.638 23.89V24.24C110.638 24.38 110.568 24.45 110.428 24.45H109.658C109.518 24.45 109.448 24.38 109.448 24.24V23.89C109.448 23.5727 109.35 23.3207 109.154 23.134C108.968 22.938 108.716 22.84 108.398 22.84H106.788C106.471 22.84 106.214 22.938 106.018 23.134C105.832 23.3207 105.738 23.5727 105.738 23.89V26.97ZM114.074 27.11C113.934 27.81 113.696 28.3233 113.36 28.65C113.024 28.9767 112.539 29.14 111.904 29.14H111.694C111.554 29.14 111.484 29.07 111.484 28.93V28.23C111.484 28.09 111.554 28.02 111.694 28.02H111.904C112.147 28.02 112.352 27.9407 112.52 27.782C112.698 27.6233 112.819 27.3993 112.884 27.11L113.934 22.07C113.962 21.93 114.079 21.86 114.284 21.86H118.204C118.344 21.86 118.414 21.93 118.414 22.07V28.79C118.414 28.93 118.344 29 118.204 29H117.434C117.294 29 117.224 28.93 117.224 28.79V22.98H114.914L114.074 27.11ZM125.095 22.07C125.123 21.9953 125.16 21.944 125.207 21.916C125.263 21.8787 125.342 21.86 125.445 21.86H126.285C126.434 21.86 126.481 21.93 126.425 22.07L123.695 29C123.499 29.4947 123.308 29.91 123.121 30.246C122.934 30.582 122.734 30.8527 122.519 31.058C122.304 31.2727 122.071 31.4267 121.819 31.52C121.567 31.6133 121.282 31.66 120.965 31.66H120.685C120.545 31.66 120.475 31.59 120.475 31.45V30.75C120.475 30.61 120.545 30.54 120.685 30.54H120.965C121.32 30.54 121.609 30.4233 121.833 30.19C122.066 29.9567 122.29 29.56 122.505 29L119.775 22.07C119.719 21.93 119.766 21.86 119.915 21.86H120.755C120.858 21.86 120.932 21.8787 120.979 21.916C121.035 21.944 121.077 21.9953 121.105 22.07L123.065 27.32H123.135L125.095 22.07ZM127.99 29C127.85 29 127.78 28.93 127.78 28.79V22.07C127.78 21.93 127.85 21.86 127.99 21.86H132.61C132.75 21.86 132.82 21.93 132.82 22.07V22.77C132.82 22.91 132.75 22.98 132.61 22.98H128.97V28.79C128.97 28.93 128.9 29 128.76 29H127.99ZM139.826 21.86C139.966 21.86 140.036 21.93 140.036 22.07V28.79C140.036 28.93 139.966 29 139.826 29H139.056C138.916 29 138.846 28.93 138.846 28.79V23.68H138.776L135.416 28.79C135.37 28.8647 135.323 28.9207 135.276 28.958C135.23 28.986 135.136 29 134.996 29H134.156C134.016 29 133.946 28.93 133.946 28.79V22.07C133.946 21.93 134.016 21.86 134.156 21.86H134.926C135.066 21.86 135.136 21.93 135.136 22.07V27.18H135.206L138.566 22.07C138.613 21.9953 138.66 21.944 138.706 21.916C138.753 21.8787 138.846 21.86 138.986 21.86H139.826Z" fill="#7E7E82"/>
<path d="M19.57 41.11H16.35C16.21 41.11 16.14 41.04 16.14 40.9V40.41C16.14 40.27 16.21 40.2 16.35 40.2H23.7C23.84 40.2 23.91 40.27 23.91 40.41V40.9C23.91 41.04 23.84 41.11 23.7 41.11H20.48V49.79C20.48 49.93 20.41 50 20.27 50H19.78C19.64 50 19.57 49.93 19.57 49.79V41.11ZM30.0616 47.97C30.0616 48.67 29.875 49.2067 29.5016 49.58C29.1283 49.9533 28.5916 50.14 27.8916 50.14H26.3516C25.6516 50.14 25.115 49.9533 24.7416 49.58C24.3683 49.2067 24.1816 48.67 24.1816 47.97V44.89C24.1816 44.19 24.3683 43.6533 24.7416 43.28C25.115 42.9067 25.6516 42.72 26.3516 42.72H27.8916C28.5916 42.72 29.1283 42.9067 29.5016 43.28C29.875 43.6533 30.0616 44.19 30.0616 44.89V46.57C30.0616 46.71 29.9916 46.78 29.8516 46.78H25.0216V47.97C25.0216 48.39 25.1383 48.7167 25.3716 48.95C25.605 49.1833 25.9316 49.3 26.3516 49.3H27.8916C28.3116 49.3 28.6383 49.1833 28.8716 48.95C29.105 48.7167 29.2216 48.39 29.2216 47.97C29.2216 47.83 29.2916 47.76 29.4316 47.76H29.8516C29.9916 47.76 30.0616 47.83 30.0616 47.97ZM25.0216 45.94H29.2216V44.89C29.2216 44.47 29.105 44.1433 28.8716 43.91C28.6383 43.6767 28.3116 43.56 27.8916 43.56H26.3516C25.9316 43.56 25.605 43.6767 25.3716 43.91C25.1383 44.1433 25.0216 44.47 25.0216 44.89V45.94ZM38.246 47.97C38.246 48.67 38.0593 49.2067 37.686 49.58C37.3127 49.9533 36.776 50.14 36.076 50.14H34.536C33.836 50.14 33.2993 49.9533 32.926 49.58C32.5527 49.2067 32.366 48.67 32.366 47.97V44.89C32.366 44.19 32.5527 43.6533 32.926 43.28C33.2993 42.9067 33.836 42.72 34.536 42.72H36.076C36.776 42.72 37.3127 42.9067 37.686 43.28C38.0593 43.6533 38.246 44.19 38.246 44.89V45.1C38.246 45.24 38.176 45.31 38.036 45.31H37.616C37.476 45.31 37.406 45.24 37.406 45.1V44.89C37.406 44.47 37.2893 44.1433 37.056 43.91C36.8227 43.6767 36.496 43.56 36.076 43.56H34.536C34.116 43.56 33.7893 43.6767 33.556 43.91C33.3227 44.1433 33.206 44.47 33.206 44.89V47.97C33.206 48.39 33.3227 48.7167 33.556 48.95C33.7893 49.1833 34.116 49.3 34.536 49.3H36.076C36.496 49.3 36.8227 49.1833 37.056 48.95C37.2893 48.7167 37.406 48.39 37.406 47.97V47.76C37.406 47.62 37.476 47.55 37.616 47.55H38.036C38.176 47.55 38.246 47.62 38.246 47.76V47.97ZM45.02 42.86C45.16 42.86 45.23 42.93 45.23 43.07V43.49C45.23 43.63 45.16 43.7 45.02 43.7H42.78V49.79C42.78 49.93 42.71 50 42.57 50H42.15C42.01 50 41.94 49.93 41.94 49.79V43.7H39.7C39.56 43.7 39.49 43.63 39.49 43.49V43.07C39.49 42.93 39.56 42.86 39.7 42.86H45.02ZM51.6556 44.12L47.8756 49.79C47.829 49.8647 47.7823 49.9207 47.7356 49.958C47.689 49.986 47.5956 50 47.4556 50H46.9656C46.8256 50 46.7556 49.93 46.7556 49.79V43.07C46.7556 42.93 46.8256 42.86 46.9656 42.86H47.3856C47.5256 42.86 47.5956 42.93 47.5956 43.07V48.74H47.6656L51.4456 43.07C51.4923 42.9953 51.539 42.944 51.5856 42.916C51.6323 42.8787 51.7256 42.86 51.8656 42.86H52.3556C52.4956 42.86 52.5656 42.93 52.5656 43.07V49.79C52.5656 49.93 52.4956 50 52.3556 50H51.9356C51.7956 50 51.7256 49.93 51.7256 49.79V44.12H51.6556ZM58.7851 42.72C59.4851 42.72 60.0217 42.9067 60.3951 43.28C60.7684 43.6533 60.9551 44.19 60.9551 44.89V47.83C60.9551 48.53 60.7684 49.0667 60.3951 49.44C60.0217 49.8133 59.4851 50 58.7851 50H55.9851V52.45C55.9851 52.59 55.9151 52.66 55.7751 52.66H55.3551C55.2151 52.66 55.1451 52.59 55.1451 52.45V43.07C55.1451 42.93 55.2151 42.86 55.3551 42.86H55.7751C55.9151 42.86 55.9851 42.93 55.9851 43.07V43.63H56.0551C56.1391 43.462 56.2557 43.3127 56.4051 43.182C56.5264 43.07 56.6851 42.9673 56.8811 42.874C57.0771 42.7713 57.3151 42.72 57.5951 42.72H58.7851ZM58.7851 49.16C59.2051 49.16 59.5317 49.0433 59.7651 48.81C59.9984 48.5767 60.1151 48.25 60.1151 47.83V44.89C60.1151 44.47 59.9984 44.1433 59.7651 43.91C59.5317 43.6767 59.2051 43.56 58.7851 43.56H57.5951C57.1004 43.56 56.7084 43.7047 56.4191 43.994C56.1297 44.2833 55.9851 44.6753 55.9851 45.17V49.16H58.7851ZM68.4378 44.89C68.4378 44.47 68.3211 44.1433 68.0878 43.91C67.8545 43.6767 67.5278 43.56 67.1078 43.56H65.4278C65.0078 43.56 64.6811 43.6767 64.4478 43.91C64.2145 44.1433 64.0978 44.47 64.0978 44.89V47.97C64.0978 48.39 64.2145 48.7167 64.4478 48.95C64.6811 49.1833 65.0078 49.3 65.4278 49.3H67.1078C67.5278 49.3 67.8545 49.1833 68.0878 48.95C68.3211 48.7167 68.4378 48.39 68.4378 47.97V44.89ZM69.2778 47.97C69.2778 48.67 69.0911 49.2067 68.7178 49.58C68.3445 49.9533 67.8078 50.14 67.1078 50.14H65.4278C64.7278 50.14 64.1911 49.9533 63.8178 49.58C63.4445 49.2067 63.2578 48.67 63.2578 47.97V44.89C63.2578 44.19 63.4445 43.6533 63.8178 43.28C64.1911 42.9067 64.7278 42.72 65.4278 42.72H67.1078C67.8078 42.72 68.3445 42.9067 68.7178 43.28C69.0911 43.6533 69.2778 44.19 69.2778 44.89V47.97ZM72.5589 43.7V45.94H75.0789C75.4336 45.94 75.7089 45.842 75.9049 45.646C76.1009 45.45 76.1989 45.1747 76.1989 44.82C76.1989 44.4653 76.1009 44.19 75.9049 43.994C75.7089 43.798 75.4336 43.7 75.0789 43.7H72.5589ZM76.6189 47.9C76.6189 47.5453 76.5209 47.27 76.3249 47.074C76.1289 46.878 75.8536 46.78 75.4989 46.78H72.5589V49.16H75.4989C75.8536 49.16 76.1289 49.062 76.3249 48.866C76.5209 48.67 76.6189 48.3947 76.6189 48.04V47.9ZM77.4589 48.04C77.4589 48.6747 77.2909 49.16 76.9549 49.496C76.6189 49.832 76.1336 50 75.4989 50H71.9289C71.7889 50 71.7189 49.93 71.7189 49.79V43.07C71.7189 42.93 71.7889 42.86 71.9289 42.86H75.0789C75.7136 42.86 76.1989 43.028 76.5349 43.364C76.8709 43.7 77.0389 44.1853 77.0389 44.82C77.0389 45.1 76.9876 45.3333 76.8849 45.52C76.7916 45.6973 76.6889 45.8373 76.5769 45.94C76.4462 46.0613 76.2969 46.1547 76.1289 46.22V46.29C76.3716 46.346 76.5909 46.4393 76.7869 46.57C76.9549 46.682 77.1089 46.8453 77.2489 47.06C77.3889 47.2653 77.4589 47.5453 77.4589 47.9V48.04ZM80.1062 48.04C80.1062 48.432 80.2182 48.74 80.4422 48.964C80.6662 49.188 80.9742 49.3 81.3662 49.3H82.4862C82.9808 49.3 83.3728 49.1553 83.6622 48.866C83.9515 48.5767 84.0962 48.1847 84.0962 47.69V46.71H81.3662C80.9742 46.71 80.6662 46.822 80.4422 47.046C80.2182 47.27 80.1062 47.578 80.1062 47.97V48.04ZM79.2662 47.97C79.2662 47.298 79.4482 46.78 79.8122 46.416C80.1762 46.052 80.6942 45.87 81.3662 45.87H84.0962V44.89C84.0962 44.47 83.9795 44.1433 83.7462 43.91C83.5128 43.6767 83.1862 43.56 82.7662 43.56H81.8562C81.4362 43.56 81.1095 43.6767 80.8762 43.91C80.6428 44.1433 80.5262 44.47 80.5262 44.89C80.5262 45.03 80.4562 45.1 80.3162 45.1H79.8962C79.7562 45.1 79.6862 45.03 79.6862 44.89C79.6862 44.19 79.8728 43.6533 80.2462 43.28C80.6195 42.9067 81.1562 42.72 81.8562 42.72H82.7662C83.4662 42.72 84.0028 42.9067 84.3762 43.28C84.7495 43.6533 84.9362 44.19 84.9362 44.89V49.79C84.9362 49.93 84.8662 50 84.7262 50H84.3062C84.1662 50 84.0962 49.93 84.0962 49.79V49.23H84.0262C83.9328 49.4073 83.8162 49.5613 83.6762 49.692C83.5455 49.804 83.3822 49.9067 83.1862 50C82.9995 50.0933 82.7662 50.14 82.4862 50.14H81.3662C80.6942 50.14 80.1762 49.958 79.8122 49.594C79.4482 49.23 79.2662 48.712 79.2662 48.04V47.97ZM92.9734 42.86C93.1134 42.86 93.1834 42.93 93.1834 43.07V49.79C93.1834 49.93 93.1134 50 92.9734 50H92.5534C92.4134 50 92.3434 49.93 92.3434 49.79V46.78H88.3534V49.79C88.3534 49.93 88.2834 50 88.1434 50H87.7234C87.5834 50 87.5134 49.93 87.5134 49.79V43.07C87.5134 42.93 87.5834 42.86 87.7234 42.86H88.1434C88.2834 42.86 88.3534 42.93 88.3534 43.07V45.94H92.3434V43.07C92.3434 42.93 92.4134 42.86 92.5534 42.86H92.9734ZM100.666 44.12L96.8862 49.79C96.8395 49.8647 96.7928 49.9207 96.7462 49.958C96.6995 49.986 96.6062 50 96.4662 50H95.9762C95.8362 50 95.7662 49.93 95.7662 49.79V43.07C95.7662 42.93 95.8362 42.86 95.9762 42.86H96.3962C96.5362 42.86 96.6062 42.93 96.6062 43.07V48.74H96.6762L100.456 43.07C100.503 42.9953 100.55 42.944 100.596 42.916C100.643 42.8787 100.736 42.86 100.876 42.86H101.366C101.506 42.86 101.576 42.93 101.576 43.07V49.79C101.576 49.93 101.506 50 101.366 50H100.946C100.806 50 100.736 49.93 100.736 49.79V44.12H100.666ZM109.896 47.97C109.896 48.67 109.709 49.2067 109.336 49.58C108.962 49.9533 108.426 50.14 107.726 50.14H106.186C105.486 50.14 104.949 49.9533 104.576 49.58C104.202 49.2067 104.016 48.67 104.016 47.97V44.89C104.016 44.19 104.202 43.6533 104.576 43.28C104.949 42.9067 105.486 42.72 106.186 42.72H107.726C108.426 42.72 108.962 42.9067 109.336 43.28C109.709 43.6533 109.896 44.19 109.896 44.89V46.57C109.896 46.71 109.826 46.78 109.686 46.78H104.856V47.97C104.856 48.39 104.972 48.7167 105.206 48.95C105.439 49.1833 105.766 49.3 106.186 49.3H107.726C108.146 49.3 108.472 49.1833 108.706 48.95C108.939 48.7167 109.056 48.39 109.056 47.97C109.056 47.83 109.126 47.76 109.266 47.76H109.686C109.826 47.76 109.896 47.83 109.896 47.97ZM104.856 45.94H109.056V44.89C109.056 44.47 108.939 44.1433 108.706 43.91C108.472 43.6767 108.146 43.56 107.726 43.56H106.186C105.766 43.56 105.439 43.6767 105.206 43.91C104.972 44.1433 104.856 44.47 104.856 44.89V45.94ZM121.014 47.97C121.014 48.67 120.828 49.2067 120.454 49.58C120.081 49.9533 119.544 50.14 118.844 50.14H117.304C116.604 50.14 116.068 49.9533 115.694 49.58C115.321 49.2067 115.134 48.67 115.134 47.97V44.89C115.134 44.19 115.321 43.6533 115.694 43.28C116.068 42.9067 116.604 42.72 117.304 42.72H118.844C119.544 42.72 120.081 42.9067 120.454 43.28C120.828 43.6533 121.014 44.19 121.014 44.89V45.1C121.014 45.24 120.944 45.31 120.804 45.31H120.384C120.244 45.31 120.174 45.24 120.174 45.1V44.89C120.174 44.47 120.058 44.1433 119.824 43.91C119.591 43.6767 119.264 43.56 118.844 43.56H117.304C116.884 43.56 116.558 43.6767 116.324 43.91C116.091 44.1433 115.974 44.47 115.974 44.89V47.97C115.974 48.39 116.091 48.7167 116.324 48.95C116.558 49.1833 116.884 49.3 117.304 49.3H118.844C119.264 49.3 119.591 49.1833 119.824 48.95C120.058 48.7167 120.174 48.39 120.174 47.97V47.76C120.174 47.62 120.244 47.55 120.384 47.55H120.804C120.944 47.55 121.014 47.62 121.014 47.76V47.97ZM127.083 43.7V45.94H129.603C129.957 45.94 130.233 45.842 130.429 45.646C130.625 45.45 130.723 45.1747 130.723 44.82C130.723 44.4653 130.625 44.19 130.429 43.994C130.233 43.798 129.957 43.7 129.603 43.7H127.083ZM131.143 47.9C131.143 47.5453 131.045 47.27 130.849 47.074C130.653 46.878 130.377 46.78 130.023 46.78H127.083V49.16H130.023C130.377 49.16 130.653 49.062 130.849 48.866C131.045 48.67 131.143 48.3947 131.143 48.04V47.9ZM131.983 48.04C131.983 48.6747 131.815 49.16 131.479 49.496C131.143 49.832 130.657 50 130.023 50H126.453C126.313 50 126.243 49.93 126.243 49.79V43.07C126.243 42.93 126.313 42.86 126.453 42.86H129.603C130.237 42.86 130.723 43.028 131.059 43.364C131.395 43.7 131.563 44.1853 131.563 44.82C131.563 45.1 131.511 45.3333 131.409 45.52C131.315 45.6973 131.213 45.8373 131.101 45.94C130.97 46.0613 130.821 46.1547 130.653 46.22V46.29C130.895 46.346 131.115 46.4393 131.311 46.57C131.479 46.682 131.633 46.8453 131.773 47.06C131.913 47.2653 131.983 47.5453 131.983 47.9V48.04ZM139.39 47.9C139.39 48.572 139.208 49.09 138.844 49.454C138.48 49.818 137.962 50 137.29 50H134.35C134.21 50 134.14 49.93 134.14 49.79V43.07C134.14 42.93 134.21 42.86 134.35 42.86H134.77C134.91 42.86 134.98 42.93 134.98 43.07V45.38H137.29C137.962 45.38 138.48 45.562 138.844 45.926C139.208 46.29 139.39 46.808 139.39 47.48V47.9ZM134.98 46.22V49.16H137.29C137.682 49.16 137.99 49.048 138.214 48.824C138.438 48.6 138.55 48.292 138.55 47.9V47.48C138.55 47.088 138.438 46.78 138.214 46.556C137.99 46.332 137.682 46.22 137.29 46.22H134.98ZM141.63 49.79C141.63 49.93 141.56 50 141.42 50H141C140.86 50 140.79 49.93 140.79 49.79V43.07C140.79 42.93 140.86 42.86 141 42.86H141.42C141.56 42.86 141.63 42.93 141.63 43.07V49.79ZM143.861 49.16L145.121 43.07C145.149 42.93 145.242 42.86 145.401 42.86H149.181C149.321 42.86 149.391 42.93 149.391 43.07V49.16H150.091C150.231 49.16 150.301 49.23 150.301 49.37V51.4C150.301 51.54 150.231 51.61 150.091 51.61H149.671C149.531 51.61 149.461 51.54 149.461 51.4V50H143.861V51.4C143.861 51.54 143.791 51.61 143.651 51.61H143.231C143.091 51.61 143.021 51.54 143.021 51.4V49.37C143.021 49.23 143.091 49.16 143.231 49.16H143.861ZM144.701 49.16H148.551V43.7H145.821L144.701 49.16ZM152.598 48.04C152.598 48.432 152.71 48.74 152.934 48.964C153.158 49.188 153.466 49.3 153.858 49.3H154.978C155.473 49.3 155.865 49.1553 156.154 48.866C156.444 48.5767 156.588 48.1847 156.588 47.69V46.71H153.858C153.466 46.71 153.158 46.822 152.934 47.046C152.71 47.27 152.598 47.578 152.598 47.97V48.04ZM151.758 47.97C151.758 47.298 151.94 46.78 152.304 46.416C152.668 46.052 153.186 45.87 153.858 45.87H156.588V44.89C156.588 44.47 156.472 44.1433 156.238 43.91C156.005 43.6767 155.678 43.56 155.258 43.56H154.348C153.928 43.56 153.602 43.6767 153.368 43.91C153.135 44.1433 153.018 44.47 153.018 44.89C153.018 45.03 152.948 45.1 152.808 45.1H152.388C152.248 45.1 152.178 45.03 152.178 44.89C152.178 44.19 152.365 43.6533 152.738 43.28C153.112 42.9067 153.648 42.72 154.348 42.72H155.258C155.958 42.72 156.495 42.9067 156.868 43.28C157.242 43.6533 157.428 44.19 157.428 44.89V49.79C157.428 49.93 157.358 50 157.218 50H156.798C156.658 50 156.588 49.93 156.588 49.79V49.23H156.518C156.425 49.4073 156.308 49.5613 156.168 49.692C156.038 49.804 155.874 49.9067 155.678 50C155.492 50.0933 155.258 50.14 154.978 50.14H153.858C153.186 50.14 152.668 49.958 152.304 49.594C151.94 49.23 151.758 48.712 151.758 48.04V47.97ZM159.729 43.07C159.729 42.93 159.799 42.86 159.939 42.86H160.359C160.499 42.86 160.569 42.93 160.569 43.07V45.45C160.569 45.87 160.686 46.1967 160.919 46.43C161.152 46.6633 161.479 46.78 161.899 46.78H164.419V43.07C164.419 42.93 164.489 42.86 164.629 42.86H165.049C165.189 42.86 165.259 42.93 165.259 43.07V49.79C165.259 49.93 165.189 50 165.049 50H164.629C164.489 50 164.419 49.93 164.419 49.79V47.62H161.899C161.199 47.62 160.662 47.4333 160.289 47.06C159.916 46.6867 159.729 46.15 159.729 45.45V43.07ZM173.575 47.97C173.575 48.67 173.388 49.2067 173.015 49.58C172.641 49.9533 172.105 50.14 171.405 50.14H169.865C169.165 50.14 168.628 49.9533 168.255 49.58C167.881 49.2067 167.695 48.67 167.695 47.97V44.89C167.695 44.19 167.881 43.6533 168.255 43.28C168.628 42.9067 169.165 42.72 169.865 42.72H171.405C172.105 42.72 172.641 42.9067 173.015 43.28C173.388 43.6533 173.575 44.19 173.575 44.89V46.57C173.575 46.71 173.505 46.78 173.365 46.78H168.535V47.97C168.535 48.39 168.651 48.7167 168.885 48.95C169.118 49.1833 169.445 49.3 169.865 49.3H171.405C171.825 49.3 172.151 49.1833 172.385 48.95C172.618 48.7167 172.735 48.39 172.735 47.97C172.735 47.83 172.805 47.76 172.945 47.76H173.365C173.505 47.76 173.575 47.83 173.575 47.97ZM168.535 45.94H172.735V44.89C172.735 44.47 172.618 44.1433 172.385 43.91C172.151 43.6767 171.825 43.56 171.405 43.56H169.865C169.445 43.56 169.118 43.6767 168.885 43.91C168.651 44.1433 168.535 44.47 168.535 44.89V45.94ZM176.929 48.74L180.709 43.07C180.756 42.9953 180.802 42.944 180.849 42.916C180.896 42.8787 180.989 42.86 181.129 42.86H181.619C181.759 42.86 181.829 42.93 181.829 43.07V49.79C181.829 49.93 181.759 50 181.619 50H181.199C181.059 50 180.989 49.93 180.989 49.79V44.12H180.919L177.139 49.79C177.092 49.8647 177.046 49.9207 176.999 49.958C176.952 49.986 176.859 50 176.719 50H176.229C176.089 50 176.019 49.93 176.019 49.79V43.07C176.019 42.93 176.089 42.86 176.229 42.86H176.649C176.789 42.86 176.859 42.93 176.859 43.07V48.74H176.929ZM178.539 41.74C178.044 41.74 177.662 41.6093 177.391 41.348C177.13 41.0773 176.999 40.6947 176.999 40.2V39.99C176.999 39.85 177.069 39.78 177.209 39.78H177.559C177.699 39.78 177.769 39.85 177.769 39.99V40.2C177.769 40.7133 178.026 40.97 178.539 40.97H179.309C179.822 40.97 180.079 40.7133 180.079 40.2V39.99C180.079 39.85 180.149 39.78 180.289 39.78H180.639C180.779 39.78 180.849 39.85 180.849 39.99V40.2C180.849 40.6947 180.714 41.0773 180.443 41.348C180.182 41.6093 179.804 41.74 179.309 41.74H178.539ZM21.67 60.86C21.81 60.86 21.88 60.93 21.88 61.07V61.49C21.88 61.63 21.81 61.7 21.67 61.7H19.43V67.79C19.43 67.93 19.36 68 19.22 68H18.8C18.66 68 18.59 67.93 18.59 67.79V61.7H16.35C16.21 61.7 16.14 61.63 16.14 61.49V61.07C16.14 60.93 16.21 60.86 16.35 60.86H21.67ZM29.1456 65.97C29.1456 66.67 28.959 67.2067 28.5856 67.58C28.2123 67.9533 27.6756 68.14 26.9756 68.14H25.4356C24.7356 68.14 24.199 67.9533 23.8256 67.58C23.4523 67.2067 23.2656 66.67 23.2656 65.97V62.89C23.2656 62.19 23.4523 61.6533 23.8256 61.28C24.199 60.9067 24.7356 60.72 25.4356 60.72H26.9756C27.6756 60.72 28.2123 60.9067 28.5856 61.28C28.959 61.6533 29.1456 62.19 29.1456 62.89V64.57C29.1456 64.71 29.0756 64.78 28.9356 64.78H24.1056V65.97C24.1056 66.39 24.2223 66.7167 24.4556 66.95C24.689 67.1833 25.0156 67.3 25.4356 67.3H26.9756C27.3956 67.3 27.7223 67.1833 27.9556 66.95C28.189 66.7167 28.3056 66.39 28.3056 65.97C28.3056 65.83 28.3756 65.76 28.5156 65.76H28.9356C29.0756 65.76 29.1456 65.83 29.1456 65.97ZM24.1056 63.94H28.3056V62.89C28.3056 62.47 28.189 62.1433 27.9556 61.91C27.7223 61.6767 27.3956 61.56 26.9756 61.56H25.4356C25.0156 61.56 24.689 61.6767 24.4556 61.91C24.2223 62.1433 24.1056 62.47 24.1056 62.89V63.94ZM35.412 61.07C35.4587 60.9953 35.5007 60.944 35.538 60.916C35.5847 60.8787 35.6593 60.86 35.762 60.86H36.322C36.3593 60.86 36.392 60.8787 36.42 60.916C36.448 60.944 36.4387 60.9953 36.392 61.07L34.152 64.29L36.602 67.79C36.6487 67.8647 36.658 67.9207 36.63 67.958C36.602 67.986 36.5693 68 36.532 68H35.972C35.8693 68 35.7947 67.986 35.748 67.958C35.7107 67.9207 35.6687 67.8647 35.622 67.79L33.662 64.99L31.702 67.79C31.6553 67.8647 31.6087 67.9207 31.562 67.958C31.5247 67.986 31.4547 68 31.352 68H30.792C30.7547 68 30.722 67.986 30.694 67.958C30.666 67.9207 30.6753 67.8647 30.722 67.79L33.172 64.29L30.932 61.07C30.8853 60.9953 30.876 60.944 30.904 60.916C30.932 60.8787 30.9647 60.86 31.002 60.86H31.562C31.6647 60.86 31.7347 60.8787 31.772 60.916C31.8187 60.944 31.8653 60.9953 31.912 61.07L33.662 63.59L35.412 61.07ZM43.7715 60.86C43.9115 60.86 43.9815 60.93 43.9815 61.07V67.79C43.9815 67.93 43.9115 68 43.7715 68H43.3515C43.2115 68 43.1415 67.93 43.1415 67.79V64.78H39.1515V67.79C39.1515 67.93 39.0815 68 38.9415 68H38.5215C38.3815 68 38.3115 67.93 38.3115 67.79V61.07C38.3115 60.93 38.3815 60.86 38.5215 60.86H38.9415C39.0815 60.86 39.1515 60.93 39.1515 61.07V63.94H43.1415V61.07C43.1415 60.93 43.2115 60.86 43.3515 60.86H43.7715ZM51.4642 62.12L47.6842 67.79C47.6376 67.8647 47.5909 67.9207 47.5442 67.958C47.4976 67.986 47.4042 68 47.2642 68H46.7742C46.6342 68 46.5642 67.93 46.5642 67.79V61.07C46.5642 60.93 46.6342 60.86 46.7742 60.86H47.1942C47.3342 60.86 47.4042 60.93 47.4042 61.07V66.74H47.4742L51.2542 61.07C51.3009 60.9953 51.3476 60.944 51.3942 60.916C51.4409 60.8787 51.5342 60.86 51.6742 60.86H52.1642C52.3042 60.86 52.3742 60.93 52.3742 61.07V67.79C52.3742 67.93 52.3042 68 52.1642 68H51.7442C51.6042 68 51.5342 67.93 51.5342 67.79V62.12H51.4642ZM54.8137 61.07C54.8137 60.93 54.8837 60.86 55.0237 60.86H55.4437C55.5837 60.86 55.6537 60.93 55.6537 61.07V63.45C55.6537 63.87 55.7703 64.1967 56.0037 64.43C56.237 64.6633 56.5637 64.78 56.9837 64.78H59.5037V61.07C59.5037 60.93 59.5737 60.86 59.7137 60.86H60.1337C60.2737 60.86 60.3437 60.93 60.3437 61.07V67.79C60.3437 67.93 60.2737 68 60.1337 68H59.7137C59.5737 68 59.5037 67.93 59.5037 67.79V65.62H56.9837C56.2837 65.62 55.747 65.4333 55.3737 65.06C55.0003 64.6867 54.8137 64.15 54.8137 63.45V61.07ZM68.6593 65.97C68.6593 66.67 68.4726 67.2067 68.0993 67.58C67.726 67.9533 67.1893 68.14 66.4893 68.14H64.9493C64.2493 68.14 63.7126 67.9533 63.3393 67.58C62.966 67.2067 62.7793 66.67 62.7793 65.97V62.89C62.7793 62.19 62.966 61.6533 63.3393 61.28C63.7126 60.9067 64.2493 60.72 64.9493 60.72H66.4893C67.1893 60.72 67.726 60.9067 68.0993 61.28C68.4726 61.6533 68.6593 62.19 68.6593 62.89V64.57C68.6593 64.71 68.5893 64.78 68.4493 64.78H63.6193V65.97C63.6193 66.39 63.736 66.7167 63.9693 66.95C64.2026 67.1833 64.5293 67.3 64.9493 67.3H66.4893C66.9093 67.3 67.236 67.1833 67.4693 66.95C67.7026 66.7167 67.8193 66.39 67.8193 65.97C67.8193 65.83 67.8893 65.76 68.0293 65.76H68.4493C68.5893 65.76 68.6593 65.83 68.6593 65.97ZM63.6193 63.94H67.8193V62.89C67.8193 62.47 67.7026 62.1433 67.4693 61.91C67.236 61.6767 66.9093 61.56 66.4893 61.56H64.9493C64.5293 61.56 64.2026 61.6767 63.9693 61.91C63.736 62.1433 63.6193 62.47 63.6193 62.89V63.94ZM76.8437 65.97C76.8437 66.67 76.657 67.2067 76.2837 67.58C75.9103 67.9533 75.3737 68.14 74.6737 68.14H73.1337C72.4337 68.14 71.897 67.9533 71.5237 67.58C71.1503 67.2067 70.9637 66.67 70.9637 65.97V62.89C70.9637 62.19 71.1503 61.6533 71.5237 61.28C71.897 60.9067 72.4337 60.72 73.1337 60.72H74.6737C75.3737 60.72 75.9103 60.9067 76.2837 61.28C76.657 61.6533 76.8437 62.19 76.8437 62.89V63.1C76.8437 63.24 76.7737 63.31 76.6337 63.31H76.2137C76.0737 63.31 76.0037 63.24 76.0037 63.1V62.89C76.0037 62.47 75.887 62.1433 75.6537 61.91C75.4203 61.6767 75.0937 61.56 74.6737 61.56H73.1337C72.7137 61.56 72.387 61.6767 72.1537 61.91C71.9203 62.1433 71.8037 62.47 71.8037 62.89V65.97C71.8037 66.39 71.9203 66.7167 72.1537 66.95C72.387 67.1833 72.7137 67.3 73.1337 67.3H74.6737C75.0937 67.3 75.4203 67.1833 75.6537 66.95C75.887 66.7167 76.0037 66.39 76.0037 65.97V65.76C76.0037 65.62 76.0737 65.55 76.2137 65.55H76.6337C76.7737 65.55 76.8437 65.62 76.8437 65.76V65.97ZM79.9777 64.64V67.79C79.9777 67.93 79.9077 68 79.7677 68H79.3477C79.2077 68 79.1377 67.93 79.1377 67.79V61.07C79.1377 60.93 79.2077 60.86 79.3477 60.86H79.7677C79.9077 60.86 79.9777 60.93 79.9777 61.07V63.8H82.0777L83.5477 61.07C83.5943 60.9953 83.6317 60.944 83.6597 60.916C83.697 60.8787 83.753 60.86 83.8277 60.86H84.3877C84.5463 60.86 84.593 60.93 84.5277 61.07L82.7777 64.22L84.7377 67.79C84.803 67.93 84.7563 68 84.5977 68H84.0377C83.963 68 83.907 67.986 83.8697 67.958C83.8417 67.9207 83.8043 67.8647 83.7577 67.79L82.0777 64.64H79.9777ZM91.4734 62.89C91.4734 62.47 91.3567 62.1433 91.1234 61.91C90.89 61.6767 90.5634 61.56 90.1434 61.56H88.4634C88.0434 61.56 87.7167 61.6767 87.4834 61.91C87.25 62.1433 87.1334 62.47 87.1334 62.89V65.97C87.1334 66.39 87.25 66.7167 87.4834 66.95C87.7167 67.1833 88.0434 67.3 88.4634 67.3H90.1434C90.5634 67.3 90.89 67.1833 91.1234 66.95C91.3567 66.7167 91.4734 66.39 91.4734 65.97V62.89ZM92.3134 65.97C92.3134 66.67 92.1267 67.2067 91.7534 67.58C91.38 67.9533 90.8434 68.14 90.1434 68.14H88.4634C87.7634 68.14 87.2267 67.9533 86.8534 67.58C86.48 67.2067 86.2934 66.67 86.2934 65.97V62.89C86.2934 62.19 86.48 61.6533 86.8534 61.28C87.2267 60.9067 87.7634 60.72 88.4634 60.72H90.1434C90.8434 60.72 91.38 60.9067 91.7534 61.28C92.1267 61.6533 92.3134 62.19 92.3134 62.89V65.97ZM99.4445 60.86C99.5845 60.86 99.6545 60.93 99.6545 61.07V61.49C99.6545 61.63 99.5845 61.7 99.4445 61.7H95.5945V67.79C95.5945 67.93 95.5245 68 95.3845 68H94.9645C94.8245 68 94.7545 67.93 94.7545 67.79V61.07C94.7545 60.93 94.8245 60.86 94.9645 60.86H99.4445ZM106.078 62.89C106.078 62.47 105.962 62.1433 105.728 61.91C105.495 61.6767 105.168 61.56 104.748 61.56H103.068C102.648 61.56 102.322 61.6767 102.088 61.91C101.855 62.1433 101.738 62.47 101.738 62.89V65.97C101.738 66.39 101.855 66.7167 102.088 66.95C102.322 67.1833 102.648 67.3 103.068 67.3H104.748C105.168 67.3 105.495 67.1833 105.728 66.95C105.962 66.7167 106.078 66.39 106.078 65.97V62.89ZM106.918 65.97C106.918 66.67 106.732 67.2067 106.358 67.58C105.985 67.9533 105.448 68.14 104.748 68.14H103.068C102.368 68.14 101.832 67.9533 101.458 67.58C101.085 67.2067 100.898 66.67 100.898 65.97V62.89C100.898 62.19 101.085 61.6533 101.458 61.28C101.832 60.9067 102.368 60.72 103.068 60.72H104.748C105.448 60.72 105.985 60.9067 106.358 61.28C106.732 61.6533 106.918 62.19 106.918 62.89V65.97ZM114.744 64.78C114.604 64.78 114.534 64.71 114.534 64.57V64.15C114.534 64.01 114.604 63.94 114.744 63.94H115.724C116.079 63.94 116.354 63.842 116.55 63.646C116.746 63.45 116.844 63.1747 116.844 62.82V62.68C116.844 62.3253 116.746 62.05 116.55 61.854C116.354 61.658 116.079 61.56 115.724 61.56H114.184C113.764 61.56 113.437 61.6767 113.204 61.91C112.971 62.1433 112.854 62.47 112.854 62.89V63.1C112.854 63.24 112.784 63.31 112.644 63.31H112.224C112.084 63.31 112.014 63.24 112.014 63.1V62.89C112.014 62.19 112.201 61.6533 112.574 61.28C112.947 60.9067 113.484 60.72 114.184 60.72H115.724C116.359 60.72 116.844 60.888 117.18 61.224C117.516 61.56 117.684 62.0453 117.684 62.68V62.82C117.684 63.1187 117.628 63.3613 117.516 63.548C117.404 63.7347 117.283 63.8793 117.152 63.982C116.993 64.1033 116.821 64.1967 116.634 64.262V64.318C116.858 64.3833 117.054 64.4813 117.222 64.612C117.371 64.724 117.507 64.8873 117.628 65.102C117.759 65.3073 117.824 65.5733 117.824 65.9V66.18C117.824 66.8147 117.656 67.3 117.32 67.636C116.984 67.972 116.499 68.14 115.864 68.14H114.044C113.344 68.14 112.807 67.9533 112.434 67.58C112.061 67.2067 111.874 66.67 111.874 65.97V65.76C111.874 65.62 111.944 65.55 112.084 65.55H112.504C112.644 65.55 112.714 65.62 112.714 65.76V65.97C112.714 66.39 112.831 66.7167 113.064 66.95C113.297 67.1833 113.624 67.3 114.044 67.3H115.864C116.219 67.3 116.494 67.202 116.69 67.006C116.886 66.81 116.984 66.5347 116.984 66.18V65.9C116.984 65.5453 116.886 65.27 116.69 65.074C116.494 64.878 116.219 64.78 115.864 64.78H114.744ZM120.544 66.04C120.544 66.432 120.656 66.74 120.88 66.964C121.104 67.188 121.412 67.3 121.804 67.3H122.924C123.419 67.3 123.811 67.1553 124.1 66.866C124.39 66.5767 124.534 66.1847 124.534 65.69V64.71H121.804C121.412 64.71 121.104 64.822 120.88 65.046C120.656 65.27 120.544 65.578 120.544 65.97V66.04ZM119.704 65.97C119.704 65.298 119.886 64.78 120.25 64.416C120.614 64.052 121.132 63.87 121.804 63.87H124.534V62.89C124.534 62.47 124.418 62.1433 124.184 61.91C123.951 61.6767 123.624 61.56 123.204 61.56H122.294C121.874 61.56 121.548 61.6767 121.314 61.91C121.081 62.1433 120.964 62.47 120.964 62.89C120.964 63.03 120.894 63.1 120.754 63.1H120.334C120.194 63.1 120.124 63.03 120.124 62.89C120.124 62.19 120.311 61.6533 120.684 61.28C121.058 60.9067 121.594 60.72 122.294 60.72H123.204C123.904 60.72 124.441 60.9067 124.814 61.28C125.188 61.6533 125.374 62.19 125.374 62.89V67.79C125.374 67.93 125.304 68 125.164 68H124.744C124.604 68 124.534 67.93 124.534 67.79V67.23H124.464C124.371 67.4073 124.254 67.5613 124.114 67.692C123.984 67.804 123.82 67.9067 123.624 68C123.438 68.0933 123.204 68.14 122.924 68.14H121.804C121.132 68.14 120.614 67.958 120.25 67.594C119.886 67.23 119.704 66.712 119.704 66.04V65.97ZM128.792 64.64V67.79C128.792 67.93 128.722 68 128.582 68H128.162C128.022 68 127.952 67.93 127.952 67.79V61.07C127.952 60.93 128.022 60.86 128.162 60.86H128.582C128.722 60.86 128.792 60.93 128.792 61.07V63.8H130.892L132.362 61.07C132.408 60.9953 132.446 60.944 132.474 60.916C132.511 60.8787 132.567 60.86 132.642 60.86H133.202C133.36 60.86 133.407 60.93 133.342 61.07L131.592 64.22L133.552 67.79C133.617 67.93 133.57 68 133.412 68H132.852C132.777 68 132.721 67.986 132.684 67.958C132.656 67.9207 132.618 67.8647 132.572 67.79L130.892 64.64H128.792ZM136.504 66.25C136.373 66.922 136.159 67.4073 135.86 67.706C135.561 67.9953 135.146 68.14 134.614 68.14H134.404C134.264 68.14 134.194 68.07 134.194 67.93V67.51C134.194 67.37 134.264 67.3 134.404 67.3H134.614C135.174 67.3 135.524 66.95 135.664 66.25L136.714 61.07C136.742 60.93 136.835 60.86 136.994 60.86H140.774C140.914 60.86 140.984 60.93 140.984 61.07V67.79C140.984 67.93 140.914 68 140.774 68H140.354C140.214 68 140.144 67.93 140.144 67.79V61.7H137.414L136.504 66.25ZM152.039 65.97C152.039 66.67 151.852 67.2067 151.479 67.58C151.105 67.9533 150.569 68.14 149.869 68.14H148.609C147.909 68.14 147.372 67.9533 146.999 67.58C146.625 67.2067 146.439 66.67 146.439 65.97V64.78H144.409V67.79C144.409 67.93 144.339 68 144.199 68H143.779C143.639 68 143.569 67.93 143.569 67.79V61.07C143.569 60.93 143.639 60.86 143.779 60.86H144.199C144.339 60.86 144.409 60.93 144.409 61.07V63.94H146.439V62.89C146.439 62.19 146.625 61.6533 146.999 61.28C147.372 60.9067 147.909 60.72 148.609 60.72H149.869C150.569 60.72 151.105 60.9067 151.479 61.28C151.852 61.6533 152.039 62.19 152.039 62.89V65.97ZM151.199 62.89C151.199 62.47 151.082 62.1433 150.849 61.91C150.615 61.6767 150.289 61.56 149.869 61.56H148.609C148.189 61.56 147.862 61.6767 147.629 61.91C147.395 62.1433 147.279 62.47 147.279 62.89V65.97C147.279 66.39 147.395 66.7167 147.629 66.95C147.862 67.1833 148.189 67.3 148.609 67.3H149.869C150.289 67.3 150.615 67.1833 150.849 66.95C151.082 66.7167 151.199 66.39 151.199 65.97V62.89ZM154.334 61.07C154.334 60.93 154.404 60.86 154.544 60.86H154.964C155.104 60.86 155.174 60.93 155.174 61.07V63.45C155.174 63.87 155.29 64.1967 155.524 64.43C155.757 64.6633 156.084 64.78 156.504 64.78H159.024V61.07C159.024 60.93 159.094 60.86 159.234 60.86H159.654C159.794 60.86 159.864 60.93 159.864 61.07V67.79C159.864 67.93 159.794 68 159.654 68H159.234C159.094 68 159.024 67.93 159.024 67.79V65.62H156.504C155.804 65.62 155.267 65.4333 154.894 65.06C154.52 64.6867 154.334 64.15 154.334 63.45V61.07ZM168.179 65.97C168.179 66.67 167.993 67.2067 167.619 67.58C167.246 67.9533 166.709 68.14 166.009 68.14H164.469C163.769 68.14 163.233 67.9533 162.859 67.58C162.486 67.2067 162.299 66.67 162.299 65.97V62.89C162.299 62.19 162.486 61.6533 162.859 61.28C163.233 60.9067 163.769 60.72 164.469 60.72H166.009C166.709 60.72 167.246 60.9067 167.619 61.28C167.993 61.6533 168.179 62.19 168.179 62.89V64.57C168.179 64.71 168.109 64.78 167.969 64.78H163.139V65.97C163.139 66.39 163.256 66.7167 163.489 66.95C163.723 67.1833 164.049 67.3 164.469 67.3H166.009C166.429 67.3 166.756 67.1833 166.989 66.95C167.223 66.7167 167.339 66.39 167.339 65.97C167.339 65.83 167.409 65.76 167.549 65.76H167.969C168.109 65.76 168.179 65.83 168.179 65.97ZM163.139 63.94H167.339V62.89C167.339 62.47 167.223 62.1433 166.989 61.91C166.756 61.6767 166.429 61.56 166.009 61.56H164.469C164.049 61.56 163.723 61.6767 163.489 61.91C163.256 62.1433 163.139 62.47 163.139 62.89V63.94ZM176.084 60.86C176.224 60.86 176.294 60.93 176.294 61.07V67.79C176.294 67.93 176.224 68 176.084 68H175.664C175.524 68 175.454 67.93 175.454 67.79V64.78H171.464V67.79C171.464 67.93 171.394 68 171.254 68H170.834C170.694 68 170.624 67.93 170.624 67.79V61.07C170.624 60.93 170.694 60.86 170.834 60.86H171.254C171.394 60.86 171.464 60.93 171.464 61.07V63.94H175.454V61.07C175.454 60.93 175.524 60.86 175.664 60.86H176.084ZM183.776 62.12L179.996 67.79C179.95 67.8647 179.903 67.9207 179.856 67.958C179.81 67.986 179.716 68 179.576 68H179.086C178.946 68 178.876 67.93 178.876 67.79V61.07C178.876 60.93 178.946 60.86 179.086 60.86H179.506C179.646 60.86 179.716 60.93 179.716 61.07V66.74H179.786L183.566 61.07C183.613 60.9953 183.66 60.944 183.706 60.916C183.753 60.8787 183.846 60.86 183.986 60.86H184.476C184.616 60.86 184.686 60.93 184.686 61.07V67.79C184.686 67.93 184.616 68 184.476 68H184.056C183.916 68 183.846 67.93 183.846 67.79V62.12H183.776ZM186.916 62.96C186.916 62.288 187.098 61.77 187.462 61.406C187.826 61.042 188.344 60.86 189.016 60.86H192.236C192.376 60.86 192.446 60.93 192.446 61.07V67.79C192.446 67.93 192.376 68 192.236 68H191.816C191.676 68 191.606 67.93 191.606 67.79V65.48H189.226L187.966 67.79C187.919 67.8647 187.877 67.9207 187.84 67.958C187.812 67.986 187.76 68 187.686 68H187.126C187.051 68 187 67.986 186.972 67.958C186.944 67.9207 186.948 67.8647 186.986 67.79L188.316 65.41C188.054 65.354 187.821 65.242 187.616 65.074C187.438 64.934 187.275 64.7333 187.126 64.472C186.986 64.2013 186.916 63.8373 186.916 63.38V62.96ZM191.606 64.64V61.7H189.016C188.624 61.7 188.316 61.812 188.092 62.036C187.868 62.26 187.756 62.568 187.756 62.96V63.38C187.756 63.772 187.868 64.08 188.092 64.304C188.316 64.528 188.624 64.64 189.016 64.64H191.606Z" fill="#1B1C21"/>
<path opacity="0.721842" d="M17.61 101C17.47 101 17.4 100.93 17.4 100.79V91.41C17.4 91.27 17.47 91.2 17.61 91.2H18.52C18.66 91.2 18.73 91.27 18.73 91.41V99.74H23.63V91.41C23.63 91.27 23.7 91.2 23.84 91.2H24.75C24.89 91.2 24.96 91.27 24.96 91.41V99.95L26.36 101.49C26.3973 101.527 26.416 101.574 26.416 101.63C26.416 101.686 26.3973 101.733 26.36 101.77L25.66 102.4C25.5573 102.484 25.464 102.484 25.38 102.4L24.12 101H17.61ZM32.5047 96.8V95.89C32.5047 95.5727 32.4067 95.3207 32.2107 95.134C32.024 94.938 31.772 94.84 31.4547 94.84H29.7747C29.4574 94.84 29.2007 94.938 29.0047 95.134C28.818 95.3207 28.7247 95.5727 28.7247 95.89V96.8H32.5047ZM28.7247 97.92V98.97C28.7247 99.2873 28.818 99.544 29.0047 99.74C29.2007 99.9267 29.4574 100.02 29.7747 100.02H31.4547C31.772 100.02 32.024 99.9267 32.2107 99.74C32.4067 99.544 32.5047 99.2873 32.5047 98.97V98.9C32.5047 98.76 32.5747 98.69 32.7147 98.69H33.4847C33.6247 98.69 33.6947 98.76 33.6947 98.9V98.97C33.6947 99.67 33.5034 100.207 33.1207 100.58C32.7474 100.953 32.192 101.14 31.4547 101.14H29.7747C29.0374 101.14 28.4774 100.953 28.0947 100.58C27.7214 100.207 27.5347 99.67 27.5347 98.97V95.89C27.5347 95.19 27.7214 94.6533 28.0947 94.28C28.4774 93.9067 29.0374 93.72 29.7747 93.72H31.4547C32.192 93.72 32.7474 93.9067 33.1207 94.28C33.5034 94.6533 33.6947 95.19 33.6947 95.89V97.71C33.6947 97.85 33.6247 97.92 33.4847 97.92H28.7247ZM36.9858 97.92V100.79C36.9858 100.93 36.9158 101 36.7758 101H36.0058C35.8658 101 35.7958 100.93 35.7958 100.79V94.07C35.7958 93.93 35.8658 93.86 36.0058 93.86H36.7758C36.9158 93.86 36.9858 93.93 36.9858 94.07V96.87H40.5558V94.07C40.5558 93.93 40.6258 93.86 40.7658 93.86H41.5358C41.6758 93.86 41.7458 93.93 41.7458 94.07V100.79C41.7458 100.93 41.6758 101 41.5358 101H40.7658C40.6258 101 40.5558 100.93 40.5558 100.79V97.92H36.9858ZM43.7052 98.83C43.7052 97.4767 44.4052 96.8 45.8052 96.8H48.3952V95.89C48.3952 95.5727 48.2972 95.3207 48.1012 95.134C47.9146 94.938 47.6626 94.84 47.3452 94.84H46.3652C46.0479 94.84 45.7912 94.938 45.5952 95.134C45.4086 95.3207 45.3152 95.5727 45.3152 95.89C45.3152 96.03 45.2452 96.1 45.1052 96.1H44.3352C44.1952 96.1 44.1252 96.03 44.1252 95.89C44.1252 95.19 44.3119 94.6533 44.6852 94.28C45.0679 93.9067 45.6279 93.72 46.3652 93.72H47.3452C48.0826 93.72 48.6379 93.9067 49.0112 94.28C49.3939 94.6533 49.5852 95.19 49.5852 95.89V100.79C49.5852 100.93 49.5152 101 49.3752 101H48.6052C48.4652 101 48.3952 100.93 48.3952 100.79V100.3H48.3252C48.2506 100.459 48.1432 100.599 48.0032 100.72C47.8819 100.823 47.7232 100.916 47.5272 101C47.3312 101.093 47.0839 101.14 46.7852 101.14H45.8052C44.4052 101.14 43.7052 100.463 43.7052 99.11V98.83ZM44.8952 99.11C44.8952 99.39 44.9746 99.614 45.1332 99.782C45.3012 99.9407 45.5252 100.02 45.8052 100.02H46.9252C47.3452 100.02 47.6952 99.88 47.9752 99.6C48.2552 99.32 48.3952 98.97 48.3952 98.55V97.92H45.8052C45.5252 97.92 45.3012 98.004 45.1332 98.172C44.9746 98.3307 44.8952 98.55 44.8952 98.83V99.11Z" fill="#7E7E82"/>
<path d="M17.68 122C17.54 122 17.47 121.93 17.47 121.79V112.41C17.47 112.27 17.54 112.2 17.68 112.2H24.19C24.33 112.2 24.4 112.27 24.4 112.41V112.9C24.4 113.04 24.33 113.11 24.19 113.11H18.38V115.98H22.65C23.4247 115.98 24.0267 116.195 24.456 116.624C24.8853 117.053 25.1 117.655 25.1 118.43V119.55C25.1 120.325 24.8853 120.927 24.456 121.356C24.0267 121.785 23.4247 122 22.65 122H17.68ZM22.65 121.09C23.1447 121.09 23.5227 120.959 23.784 120.698C24.0547 120.427 24.19 120.045 24.19 119.55V118.43C24.19 117.935 24.0547 117.557 23.784 117.296C23.5227 117.025 23.1447 116.89 22.65 116.89H18.38V121.09H22.65ZM33.3566 119.97C33.3566 120.67 33.1699 121.207 32.7966 121.58C32.4232 121.953 31.8866 122.14 31.1866 122.14H29.6466C28.9466 122.14 28.4099 121.953 28.0366 121.58C27.6632 121.207 27.4766 120.67 27.4766 119.97V116.89C27.4766 116.19 27.6632 115.653 28.0366 115.28C28.4099 114.907 28.9466 114.72 29.6466 114.72H31.1866C31.8866 114.72 32.4232 114.907 32.7966 115.28C33.1699 115.653 33.3566 116.19 33.3566 116.89V118.57C33.3566 118.71 33.2866 118.78 33.1466 118.78H28.3166V119.97C28.3166 120.39 28.4332 120.717 28.6666 120.95C28.8999 121.183 29.2266 121.3 29.6466 121.3H31.1866C31.6066 121.3 31.9332 121.183 32.1666 120.95C32.3999 120.717 32.5166 120.39 32.5166 119.97C32.5166 119.83 32.5866 119.76 32.7266 119.76H33.1466C33.2866 119.76 33.3566 119.83 33.3566 119.97ZM28.3166 117.94H32.5166V116.89C32.5166 116.47 32.3999 116.143 32.1666 115.91C31.9332 115.677 31.6066 115.56 31.1866 115.56H29.6466C29.2266 115.56 28.8999 115.677 28.6666 115.91C28.4332 116.143 28.3166 116.47 28.3166 116.89V117.94ZM41.5409 119.97C41.5409 120.67 41.3543 121.207 40.9809 121.58C40.6076 121.953 40.0709 122.14 39.3709 122.14H37.8309C37.1309 122.14 36.5943 121.953 36.2209 121.58C35.8476 121.207 35.6609 120.67 35.6609 119.97V116.89C35.6609 116.19 35.8476 115.653 36.2209 115.28C36.5943 114.907 37.1309 114.72 37.8309 114.72H39.3709C40.0709 114.72 40.6076 114.907 40.9809 115.28C41.3543 115.653 41.5409 116.19 41.5409 116.89V117.1C41.5409 117.24 41.4709 117.31 41.3309 117.31H40.9109C40.7709 117.31 40.7009 117.24 40.7009 117.1V116.89C40.7009 116.47 40.5843 116.143 40.3509 115.91C40.1176 115.677 39.7909 115.56 39.3709 115.56H37.8309C37.4109 115.56 37.0843 115.677 36.8509 115.91C36.6176 116.143 36.5009 116.47 36.5009 116.89V119.97C36.5009 120.39 36.6176 120.717 36.8509 120.95C37.0843 121.183 37.4109 121.3 37.8309 121.3H39.3709C39.7909 121.3 40.1176 121.183 40.3509 120.95C40.5843 120.717 40.7009 120.39 40.7009 119.97V119.76C40.7009 119.62 40.7709 119.55 40.9109 119.55H41.3309C41.4709 119.55 41.5409 119.62 41.5409 119.76V119.97ZM49.2949 114.86C49.4349 114.86 49.5049 114.93 49.5049 115.07V121.79C49.5049 121.93 49.4349 122 49.2949 122H48.8749C48.7349 122 48.6649 121.93 48.6649 121.79V115.7H44.6749V121.79C44.6749 121.93 44.6049 122 44.4649 122H44.0449C43.9049 122 43.8349 121.93 43.8349 121.79V115.07C43.8349 114.93 43.9049 114.86 44.0449 114.86H49.2949ZM53.2077 120.25C53.077 120.922 52.8623 121.407 52.5637 121.706C52.265 121.995 51.8497 122.14 51.3177 122.14H51.1077C50.9677 122.14 50.8977 122.07 50.8977 121.93V121.51C50.8977 121.37 50.9677 121.3 51.1077 121.3H51.3177C51.8777 121.3 52.2277 120.95 52.3677 120.25L53.4177 115.07C53.4457 114.93 53.539 114.86 53.6977 114.86H57.4777C57.6177 114.86 57.6877 114.93 57.6877 115.07V121.79C57.6877 121.93 57.6177 122 57.4777 122H57.0577C56.9177 122 56.8477 121.93 56.8477 121.79V115.7H54.1177L53.2077 120.25ZM60.762 120.04C60.762 120.432 60.874 120.74 61.098 120.964C61.322 121.188 61.63 121.3 62.022 121.3H63.142C63.6367 121.3 64.0287 121.155 64.318 120.866C64.6074 120.577 64.752 120.185 64.752 119.69V118.71H62.022C61.63 118.71 61.322 118.822 61.098 119.046C60.874 119.27 60.762 119.578 60.762 119.97V120.04ZM59.922 119.97C59.922 119.298 60.104 118.78 60.468 118.416C60.832 118.052 61.35 117.87 62.022 117.87H64.752V116.89C64.752 116.47 64.6354 116.143 64.402 115.91C64.1687 115.677 63.842 115.56 63.422 115.56H62.512C62.092 115.56 61.7654 115.677 61.532 115.91C61.2987 116.143 61.182 116.47 61.182 116.89C61.182 117.03 61.112 117.1 60.972 117.1H60.552C60.412 117.1 60.342 117.03 60.342 116.89C60.342 116.19 60.5287 115.653 60.902 115.28C61.2754 114.907 61.812 114.72 62.512 114.72H63.422C64.122 114.72 64.6587 114.907 65.032 115.28C65.4054 115.653 65.592 116.19 65.592 116.89V121.79C65.592 121.93 65.522 122 65.382 122H64.962C64.822 122 64.752 121.93 64.752 121.79V121.23H64.682C64.5887 121.407 64.472 121.561 64.332 121.692C64.2014 121.804 64.038 121.907 63.842 122C63.6554 122.093 63.422 122.14 63.142 122.14H62.022C61.35 122.14 60.832 121.958 60.468 121.594C60.104 121.23 59.922 120.712 59.922 120.04V119.97ZM72.6493 114.86C72.7893 114.86 72.8593 114.93 72.8593 115.07V115.49C72.8593 115.63 72.7893 115.7 72.6493 115.7H70.4093V121.79C70.4093 121.93 70.3393 122 70.1993 122H69.7793C69.6393 122 69.5693 121.93 69.5693 121.79V115.7H67.3293C67.1893 115.7 67.1193 115.63 67.1193 115.49V115.07C67.1193 114.93 67.1893 114.86 67.3293 114.86H72.6493ZM79.8449 114.86C79.9849 114.86 80.0549 114.93 80.0549 115.07V121.79C80.0549 121.93 79.9849 122 79.8449 122H79.4249C79.2849 122 79.2149 121.93 79.2149 121.79V118.78H75.2249V121.79C75.2249 121.93 75.1549 122 75.0149 122H74.5949C74.4549 122 74.3849 121.93 74.3849 121.79V115.07C74.3849 114.93 74.4549 114.86 74.5949 114.86H75.0149C75.1549 114.86 75.2249 114.93 75.2249 115.07V117.94H79.2149V115.07C79.2149 114.93 79.2849 114.86 79.4249 114.86H79.8449ZM87.6777 116.89C87.6777 116.47 87.561 116.143 87.3277 115.91C87.0943 115.677 86.7677 115.56 86.3477 115.56H84.6677C84.2477 115.56 83.921 115.677 83.6877 115.91C83.4543 116.143 83.3377 116.47 83.3377 116.89V119.97C83.3377 120.39 83.4543 120.717 83.6877 120.95C83.921 121.183 84.2477 121.3 84.6677 121.3H86.3477C86.7677 121.3 87.0943 121.183 87.3277 120.95C87.561 120.717 87.6777 120.39 87.6777 119.97V116.89ZM88.5177 119.97C88.5177 120.67 88.331 121.207 87.9577 121.58C87.5843 121.953 87.0477 122.14 86.3477 122.14H84.6677C83.9677 122.14 83.431 121.953 83.0577 121.58C82.6843 121.207 82.4977 120.67 82.4977 119.97V116.89C82.4977 116.19 82.6843 115.653 83.0577 115.28C83.431 114.907 83.9677 114.72 84.6677 114.72H86.3477C87.0477 114.72 87.5843 114.907 87.9577 115.28C88.331 115.653 88.5177 116.19 88.5177 116.89V119.97Z" fill="#1B1C21"/>
</svg>
